<svg width="56" height="56" viewBox="0 0 56 56" fill="none" xmlns="http://www.w3.org/2000/svg">
<path d="M27.9994 55.9988C43.4631 55.9988 55.9988 43.4631 55.9988 27.9994C55.9988 12.5358 43.4631 0 27.9994 0C12.5358 0 0 12.5358 0 27.9994C0 43.4631 12.5358 55.9988 27.9994 55.9988Z" fill="#F8E000"/>
<path d="M46.4313 45.0671L25.1523 55.8803C11.0259 54.4544 0 42.5267 0 28.0238C0 27.8751 0.00116209 27.7263 0.00348627 27.5776L9.23862 21.2128L39.0428 38.4164L46.4313 45.0671Z" fill="#FFC305"/>
<path d="M9.23828 21.1895L14.807 27.5102L18.105 27.7856V14.5935L9.23828 21.1895Z" fill="#19479C"/>
<path d="M37.8926 14.5935V27.7856L43.323 25.9111L46.7605 21.1895L37.8926 14.5935Z" fill="#00378F"/>
<path d="M40.0925 8.95041V33.8308C40.0925 34.4467 39.609 34.9301 38.9931 34.9301H17.0075C16.3916 34.9301 15.9082 34.4467 15.9082 33.8308V8.95041C15.9082 8.3345 16.3916 7.85107 17.0075 7.85107H38.9931C39.609 7.85107 40.0925 8.3345 40.0925 8.95041Z" fill="#ECECF1"/>
<path d="M40.0927 8.95041V33.8308C40.0927 34.4467 39.6093 34.9301 38.9934 34.9301H28V7.85107H38.9934C39.6093 7.85107 40.0927 8.3345 40.0927 8.95041Z" fill="#E2E2E7"/>
<path d="M27.9981 12.3949C23.7553 12.3949 20.3027 15.8463 20.3027 20.0902C20.3027 24.3342 23.7541 27.7856 27.9981 27.7856C29.2078 27.7856 30.3723 27.5218 31.4495 26.9721C31.9771 26.7083 32.1967 26.0494 31.9329 25.4998C31.6691 24.9501 31.0102 24.7305 30.4606 25.0163C29.6913 25.3905 28.8557 25.5881 27.9981 25.5881C24.9639 25.5881 22.5014 23.1256 22.5014 20.0914C22.5014 17.0572 24.9639 14.5947 27.9981 14.5947C31.0323 14.5947 33.4948 17.0572 33.4948 20.0914C33.4948 20.7073 33.0114 21.1907 32.3955 21.1907C31.7795 21.1907 31.2961 20.7073 31.2961 20.0914C31.2961 18.2669 29.8237 16.7934 27.9981 16.7934C26.1725 16.7934 24.7001 18.2657 24.7001 20.0914C24.7001 21.917 26.1725 23.3894 27.9981 23.3894C28.8557 23.3894 29.6029 23.0594 30.1968 22.5318C30.7906 23.0594 31.5378 23.3894 32.3955 23.3894C34.2199 23.3894 35.6935 21.917 35.6935 20.0914C35.6935 15.8463 32.2421 12.3949 27.9981 12.3949ZM27.9981 21.1896C27.3822 21.1896 26.8988 20.7061 26.8988 20.0902C26.8988 19.4743 27.3822 18.9909 27.9981 18.9909C28.614 18.9909 29.0974 19.4743 29.0974 20.0902C29.0974 20.7061 28.614 21.1896 27.9981 21.1896Z" fill="#05CDFF"/>
<path d="M9.23828 44.2745C9.23828 44.5778 9.36146 44.8532 9.56018 45.052L21.0788 39.6645L24.6743 32.7117L9.23828 21.1896V44.2745Z" fill="#1A396B"/>
<path d="M46.4384 45.052C46.6371 44.8532 46.7603 44.5778 46.7603 44.2745V21.1896L31.3242 32.7117L36.0609 40.6L46.4384 45.052Z" fill="#124FA8"/>
<path d="M31.4534 26.971C30.3761 27.5207 29.2105 27.7845 28.002 27.7845V25.5858C28.8596 25.5858 29.6951 25.3882 30.4644 25.014C31.0141 24.7282 31.6742 24.9478 31.9368 25.4975C32.1994 26.0471 31.981 26.7072 31.4534 26.971Z" fill="#05CDFF"/>
<path d="M35.6954 20.0902C35.6954 21.9147 34.223 23.3882 32.3974 23.3882C31.5397 23.3882 30.7925 23.0582 30.1987 22.5306C29.6048 23.0582 28.8576 23.3882 28 23.3882V21.1896C28.6159 21.1896 29.0993 20.7061 29.0993 20.0902C29.0993 19.4743 28.6159 18.9909 28 18.9909V16.7922C29.8245 16.7922 31.298 18.2646 31.298 20.0902C31.298 20.7061 31.7814 21.1896 32.3974 21.1896C33.0133 21.1896 33.4967 20.7061 33.4967 20.0902C33.4967 17.056 31.0342 14.5935 28 14.5935V12.3949C32.244 12.3949 35.6954 15.8463 35.6954 20.0902Z" fill="#05CDFF"/>
<path d="M46.431 45.0438C46.2335 45.2414 45.9697 45.3739 45.6617 45.3739H10.3377C10.0297 45.3739 9.76591 45.2414 9.56836 45.0438L26.6151 31.1266C27.0102 30.7966 27.5169 30.6432 28.0003 30.6432C28.4837 30.6432 28.9892 30.7977 29.3855 31.1266L46.431 45.0438Z" fill="#2D56A1"/>
<path d="M46.4319 45.0438C46.2344 45.2414 45.9706 45.3739 45.6626 45.3739H28V30.6432C28.4834 30.6432 28.9889 30.7977 29.3852 31.1266L46.4319 45.0438Z" fill="#153B82"/>
</svg>
