<svg width="44" height="44" viewBox="0 0 44 44" fill="none" xmlns="http://www.w3.org/2000/svg">
<circle cx="22" cy="22" r="22" fill="#FFFDCC"/>
<path d="M26.6875 16.6875C26.0403 16.6875 25.5156 16.1629 25.5156 15.5156V13.1719C25.5156 12.5246 26.0403 12 26.6875 12C27.3347 12 27.8594 12.5246 27.8594 13.1719V15.5156C27.8594 16.1629 27.3347 16.6875 26.6875 16.6875Z" fill="#FFCB05"/>
<path d="M29.8516 14.3438H29.0312V15.5156C29.0312 16.808 27.9798 17.8594 26.6875 17.8594C25.3952 17.8594 24.3438 16.808 24.3438 15.5156V14.3438H19.6563V15.5156C19.6563 16.808 18.6048 17.8594 17.3125 17.8594C16.0202 17.8594 14.9688 16.808 14.9688 15.5156V14.3438H14.1484C12.9638 14.3438 12 15.3075 12 16.4922V19.1094H32V16.4922C32 15.3075 31.0362 14.3438 29.8516 14.3438Z" fill="#FFCB05"/>
<path d="M17.3125 16.6875C16.6653 16.6875 16.1406 16.1629 16.1406 15.5156V13.1719C16.1406 12.5246 16.6653 12 17.3125 12C17.9597 12 18.4844 12.5246 18.4844 13.1719V15.5156C18.4844 16.1629 17.9597 16.6875 17.3125 16.6875Z" fill="#FFCB05"/>
<path d="M12 20.2812V29.8516C12 31.0362 12.9638 32 14.1484 32H29.8516C31.0362 32 32 31.0362 32 29.8516V20.2812H12ZM22.6158 27.8984C22.6158 29.1908 21.5644 30.2422 20.272 30.2422C19.1092 30.2422 18.1114 29.3748 17.9508 28.2246C17.9359 28.1173 17.9283 28.0076 17.9283 27.8984C17.9283 27.5748 18.1906 27.3125 18.5142 27.3125C18.8378 27.3125 19.1002 27.5748 19.1002 27.8984C19.1002 27.9536 19.104 28.0088 19.1115 28.0627C19.1916 28.6371 19.6905 29.0703 20.272 29.0703C20.9182 29.0703 21.4439 28.5446 21.4439 27.8984C21.4439 27.2523 20.9182 26.7266 20.272 26.7266C19.9484 26.7266 19.6861 26.4642 19.6861 26.1406C19.6861 25.817 19.9484 25.5547 20.272 25.5547C20.9182 25.5547 21.4439 25.029 21.4439 24.3828C21.4439 23.7366 20.9182 23.2109 20.272 23.2109C19.7132 23.2109 19.2296 23.608 19.1221 24.155C19.0597 24.4726 18.7515 24.6794 18.4343 24.6171C18.1168 24.5547 17.9099 24.2467 17.9723 23.9292C18.1873 22.834 19.1545 22.0391 20.272 22.0391C21.5644 22.0391 22.6158 23.0905 22.6158 24.3828C22.6158 25.0823 22.3073 25.7108 21.8198 26.1406C22.3073 26.5704 22.6158 27.1989 22.6158 27.8984ZM26.0717 29.6562C26.0717 29.9798 25.8094 30.2422 25.4858 30.2422C25.1622 30.2422 24.8998 29.9798 24.8998 29.6562V23.2109H23.9829C23.6593 23.2109 23.397 22.9486 23.397 22.625C23.397 22.3014 23.6593 22.0391 23.9829 22.0391H25.4858C25.8094 22.0391 26.0717 22.3014 26.0717 22.625V29.6562Z" fill="#FFCB05"/>
</svg>
