<svg width="22" height="22" viewBox="0 0 22 22" fill="none" xmlns="http://www.w3.org/2000/svg">
<path d="M14.966 6.62051H7.03423C6.14543 6.62051 5.42383 7.34211 5.42383 8.23091V13.769C5.42383 14.6578 6.14543 15.3794 7.03423 15.3794H14.963C15.8518 15.3794 16.5734 14.6578 16.5734 13.769V8.23091C16.5734 7.34211 15.8518 6.62051 14.966 6.62051ZM14.966 7.39198C15.0305 7.39198 15.095 7.40078 15.1566 7.41545L11.8126 11.2112C11.6073 11.4429 11.311 11.5778 11.003 11.5778C10.6921 11.5778 10.3988 11.4458 10.1934 11.2112L6.84943 7.41545C6.91103 7.40078 6.97556 7.39198 7.04009 7.39198H14.966ZM15.8049 13.769C15.8049 14.2325 15.4294 14.608 14.966 14.608H7.03423C6.57076 14.608 6.1953 14.2325 6.1953 13.769V8.23091C6.1953 8.11945 6.21876 8.01091 6.25983 7.91118L9.61263 11.7157C9.96463 12.1146 10.4692 12.3434 11.0001 12.3434C11.531 12.3434 12.0356 12.1146 12.3876 11.7157L15.7404 7.91118C15.7814 8.00798 15.802 8.11651 15.802 8.22798V13.769H15.8049Z" fill="#868686"/>
<path d="M11 22C7.48587 22 4.1536 20.2987 2.08853 17.4475C0.7216 15.5643 0 13.3349 0 11C0 4.93387 4.93387 0 11 0C17.0661 0 22 4.93387 22 11C22 17.0661 17.0661 22 11 22ZM2.80133 16.9341C4.70213 19.5536 7.76747 21.12 11 21.12C16.5792 21.12 21.12 16.5792 21.12 11C21.12 5.4208 16.5792 0.88 11 0.88C5.4208 0.88 0.88 5.4208 0.88 11C0.88 13.1472 1.54293 15.2005 2.80133 16.9341Z" fill="#868686"/>
</svg>
