<svg width="22" height="22" viewBox="0 0 22 22" fill="none" xmlns="http://www.w3.org/2000/svg">
<path d="M11 22C4.93387 22 0 17.0661 0 11C0 4.93387 4.93387 0 11 0C17.0661 0 22 4.93387 22 11C22 17.0661 17.0661 22 11 22ZM11 0.88C5.4208 0.88 0.88 5.4208 0.88 11C0.88 16.5792 5.4208 21.12 11 21.12C16.5792 21.12 21.12 16.5792 21.12 11C21.12 5.4208 16.5792 0.88 11 0.88Z" fill="#868686"/>
<path d="M8.43086 16.4677C8.24313 16.4677 8.0554 16.456 7.87353 16.4296C7.51566 16.3797 7.16953 16.2712 6.84686 16.1128C6.51833 15.9515 6.2162 15.7285 5.94633 15.4499L5.565 15.0568C5.4594 14.9395 5.38606 14.8192 5.33913 14.6901C5.2746 14.5053 5.26286 14.3117 5.3098 14.1181C5.35673 13.9216 5.45646 13.7515 5.60606 13.6107L7.34846 11.9768C7.45993 11.8741 7.5802 11.8008 7.70926 11.7568C7.897 11.6923 8.08766 11.6776 8.28126 11.7187C8.48366 11.7597 8.65966 11.8595 8.8034 12.012L9.5602 12.7923C9.59833 12.8304 9.63646 12.8539 9.6834 12.8627C9.7362 12.8744 9.78606 12.8715 9.83886 12.8509C9.87993 12.8363 9.9122 12.8157 9.94153 12.7923L12.8983 10.0291C12.9423 9.98799 12.9687 9.94692 12.9775 9.90879C12.9893 9.85892 12.9834 9.81199 12.9658 9.76212C12.957 9.73572 12.9365 9.70639 12.9101 9.67705L12.1591 8.89972C12.0535 8.78532 11.9802 8.66505 11.9333 8.53305C11.8687 8.35119 11.8599 8.15759 11.9039 7.96399C11.9509 7.76745 12.0477 7.59732 12.1943 7.45359L13.9485 5.81092C14.0541 5.71412 14.1773 5.64079 14.3093 5.59385C14.4941 5.52932 14.6847 5.51759 14.8754 5.55865C15.0719 5.59972 15.245 5.69652 15.3887 5.84025L15.7847 6.24212C15.9607 6.42399 16.1103 6.61759 16.2306 6.81999C16.3479 7.01652 16.4477 7.22772 16.5269 7.44772C16.6501 7.79972 16.7146 8.17225 16.7205 8.55652C16.7234 8.93199 16.6735 9.31625 16.5679 9.69465C16.4653 10.0672 16.3098 10.4427 16.1103 10.8064C15.9109 11.1672 15.6645 11.5192 15.3799 11.8448C15.2509 12.0179 15.0749 12.2291 14.8813 12.452C14.717 12.6397 14.5175 12.8568 14.2829 13.1061C14.0511 13.3525 13.7813 13.6195 13.4791 13.8981C13.1858 14.1739 12.9159 14.4115 12.6842 14.5963C12.4466 14.7869 12.253 14.9307 12.0975 15.0421C11.9186 15.1683 11.7543 15.2739 11.6106 15.3531C11.3671 15.5291 11.1119 15.6845 10.8567 15.8195C10.5927 15.9573 10.3199 16.0747 10.0471 16.1715C9.68633 16.2976 9.31966 16.3856 8.95886 16.4325C8.78286 16.456 8.60686 16.4677 8.43086 16.4677ZM8.0642 12.5693C8.04366 12.5693 8.02606 12.5723 8.00553 12.5811C7.98793 12.5869 7.9674 12.5987 7.9498 12.6163L6.21033 14.2472C6.181 14.2765 6.1722 14.2971 6.16633 14.3176C6.16046 14.3469 6.16046 14.3675 6.16926 14.3939C6.17513 14.4115 6.18686 14.432 6.20446 14.4496L6.57993 14.8368C6.7794 15.0451 6.99646 15.2064 7.23113 15.3208C7.47166 15.4381 7.7298 15.5173 7.99673 15.5555C8.26953 15.5936 8.557 15.5965 8.8474 15.5584C9.1466 15.5203 9.45166 15.4469 9.7538 15.3413C9.98846 15.2592 10.2202 15.1565 10.449 15.0392C10.6749 14.9219 10.9007 14.7811 11.1178 14.6256L11.1706 14.5933C11.2879 14.5317 11.4287 14.4408 11.5901 14.3264C11.7338 14.2267 11.9127 14.0888 12.1386 13.9099C12.3527 13.7397 12.6021 13.5197 12.8837 13.2557C13.1711 12.9888 13.4263 12.7365 13.6463 12.5048C13.8722 12.2643 14.0658 12.0531 14.2242 11.8741C14.4061 11.6659 14.5674 11.4693 14.7023 11.2933C14.9634 10.9912 15.1746 10.6891 15.3447 10.3811C15.5119 10.076 15.641 9.76799 15.7261 9.45999C15.8082 9.16079 15.8493 8.85865 15.8463 8.56532C15.8434 8.27785 15.7965 8.00212 15.7026 7.74105C15.6439 7.57972 15.5706 7.42132 15.4826 7.27465C15.3946 7.13092 15.2861 6.99012 15.1599 6.85812L14.7698 6.46212C14.7405 6.43279 14.717 6.42399 14.6965 6.42105C14.6642 6.41519 14.6378 6.41519 14.6055 6.42692C14.585 6.43279 14.5674 6.44452 14.5469 6.46212L12.8045 8.09305C12.7839 8.11359 12.7722 8.13412 12.7663 8.16345C12.7575 8.20159 12.7634 8.22505 12.7693 8.23972C12.7751 8.25732 12.7869 8.27492 12.8045 8.29252L13.5554 9.06692C13.6727 9.19305 13.7549 9.32505 13.8047 9.46585C13.8751 9.66532 13.8898 9.87359 13.8487 10.0789C13.8047 10.296 13.6903 10.4925 13.5114 10.6656L10.5487 13.4347C10.4285 13.5432 10.2935 13.6253 10.141 13.6781C9.94153 13.7485 9.73033 13.7632 9.51913 13.7221C9.2962 13.6752 9.1026 13.5696 8.94126 13.4024L8.18446 12.6192C8.15806 12.5899 8.13753 12.5811 8.117 12.5781C8.0906 12.5723 8.07593 12.5693 8.0642 12.5693Z" fill="#868686"/>
</svg>
