<svg width="100" height="101" viewBox="0 0 100 101" fill="none" xmlns="http://www.w3.org/2000/svg">
<g clip-path="url(#clip0)">
<path d="M100 42.1162V73.7892C100 79.6085 95.3258 84.3429 89.5799 84.3429H87.2982L78.3201 95.015C78.041 95.3464 77.6332 95.5377 77.2037 95.5377C76.7742 95.5377 76.3664 95.3464 76.0893 95.015L67.1111 84.3429H49.5238C43.7799 84.3429 39.1055 79.6085 39.1055 73.7892V33.042C39.1055 32.2253 39.7613 31.5625 40.5693 31.5625H89.5799C95.3258 31.5625 100 36.2969 100 42.1162Z" fill="#09EAA3"/>
<path d="M100.001 42.1162V73.7892C100.001 79.6085 95.327 84.3429 89.5811 84.3429H87.682C92.4717 83.394 96.0981 79.1114 96.0981 73.9864V42.1162C96.0981 36.2969 91.4236 31.5625 85.6777 31.5625H89.5812C95.327 31.5625 100.001 36.2969 100.001 42.1162Z" fill="#14BB87"/>
<path d="M80.4123 28.3076V58.797C80.4123 64.6163 75.7379 69.3507 69.9938 69.3507H32.8891L23.9109 80.0228C23.6338 80.3542 23.2258 80.5455 22.7965 80.5455C22.3672 80.5455 21.9592 80.3542 21.6801 80.0228L12.702 69.3507H10.4205C4.67461 69.3507 0 64.6163 0 58.797V28.3076C0 22.4883 4.67441 17.7539 10.4205 17.7539H69.9939C75.7377 17.7539 80.4123 22.4883 80.4123 28.3076Z" fill="#D9F0F4"/>
<path d="M80.4119 28.3076V58.797C80.4119 64.6163 75.7375 69.3507 69.9934 69.3507H66.0898C71.8338 69.3507 76.5084 64.6163 76.5084 58.797V28.3076C76.5084 22.4883 71.834 17.7539 66.0898 17.7539H69.9934C75.7373 17.7539 80.4119 22.4883 80.4119 28.3076Z" fill="#BAE1E5"/>
<path d="M33.1512 47.989C35.5765 47.989 37.5426 46.0018 37.5426 43.5505C37.5426 41.0992 35.5765 39.1121 33.1512 39.1121C30.7259 39.1121 28.7598 41.0992 28.7598 43.5505C28.7598 46.0018 30.7259 47.989 33.1512 47.989Z" fill="#56788B"/>
<path d="M18.8777 47.989C21.303 47.989 23.2691 46.0018 23.2691 43.5505C23.2691 41.0992 21.303 39.1121 18.8777 39.1121C16.4524 39.1121 14.4863 41.0992 14.4863 43.5505C14.4863 46.0018 16.4524 47.989 18.8777 47.989Z" fill="#56788B"/>
<path d="M47.4285 47.989C49.8538 47.989 51.8199 46.0018 51.8199 43.5505C51.8199 41.0992 49.8538 39.1121 47.4285 39.1121C45.0032 39.1121 43.0371 41.0992 43.0371 43.5505C43.0371 46.0018 45.0032 47.989 47.4285 47.989Z" fill="#56788B"/>
<path d="M61.702 47.989C64.1273 47.989 66.0934 46.0018 66.0934 43.5505C66.0934 41.0992 64.1273 39.1121 61.702 39.1121C59.2766 39.1121 57.3105 41.0992 57.3105 43.5505C57.3105 46.0018 59.2766 47.989 61.702 47.989Z" fill="#56788B"/>
<path d="M49.5336 94.6204C49.5336 98.1377 46.7055 101 43.2295 101H6.3041C2.82812 101 0 98.1377 0 94.6204C0 91.1032 2.82812 88.2428 6.3041 88.2428H6.85254L10.1471 83.6465C10.4223 83.2618 10.8633 83.033 11.3318 83.033C11.8021 83.033 12.2434 83.2618 12.5186 83.6465L15.8131 88.2428H43.2293C46.7055 88.2428 49.5336 91.1032 49.5336 94.6204Z" fill="#4DD4F7"/>
<path d="M100 6.37957C100 9.89682 97.1721 12.7572 93.6961 12.7572H89.7926L86.4981 17.3535C86.2229 17.7381 85.7818 17.967 85.3133 17.967C84.843 17.967 84.4018 17.7381 84.1266 17.3535L80.834 12.7572H56.7709C53.2949 12.7572 50.4668 9.89682 50.4668 6.37957C50.4668 2.86232 53.2949 0 56.7709 0H93.6961C97.1721 0 100 2.86232 100 6.37957Z" fill="#FBDF63"/>
<path d="M100.001 6.37957C100.001 9.89682 97.1725 12.7572 93.6965 12.7572H89.793C93.2689 12.7572 96.0971 9.89682 96.0971 6.37957C96.0971 2.86232 93.2689 0 89.793 0H93.6965C97.1725 0 100.001 2.86232 100.001 6.37957Z" fill="#FFA402"/>
<path d="M49.5338 94.6205C49.5338 98.1377 46.7057 101 43.2297 101H39.3262C42.8021 101 45.6303 98.1377 45.6303 94.6205C45.6303 91.1032 42.8021 88.2429 39.3262 88.2429H43.2297C46.7057 88.2429 49.5338 91.1032 49.5338 94.6205Z" fill="#00C2F3"/>
</g>
<defs>
<clipPath id="clip0">
<rect width="100" height="101" fill="white"/>
</clipPath>
</defs>
</svg>
