<svg width="100" height="100" viewBox="0 0 100 100" fill="none" xmlns="http://www.w3.org/2000/svg">
<g clip-path="url(#clip0)">
<path d="M75.4785 64.875V72.8809C75.4785 75.4629 73.377 77.5644 70.793 77.5644H4.68555C2.10156 77.5644 0 75.4629 0 72.8809V39.2266C0 36.6426 2.10156 34.543 4.68555 34.543H24.9277L75.4785 64.875Z" fill="#D9F0F4"/>
<path d="M75.4785 64.875V69.6113H29.2051C24.4687 69.6113 20.6152 65.7578 20.6152 61.0215V34.543H24.9277L75.4785 64.875Z" fill="#0EA88A"/>
<path d="M100 27.3672V61.0215C100 63.6035 97.8984 65.7051 95.3164 65.7051H29.2051C26.623 65.7051 24.5215 63.6035 24.5215 61.0215V27.3672C24.5215 24.7852 26.623 22.6836 29.2051 22.6836H95.3164C97.8984 22.6836 100 24.7852 100 27.3672Z" fill="#14BB87"/>
<path d="M100 27.3672V61.0215C100 63.6035 97.8984 65.7051 95.3164 65.7051H91.4102C93.9961 65.7051 96.0938 63.6074 96.0938 61.0215V27.3672C96.0938 24.7812 93.9961 22.6836 91.4102 22.6836H95.3164C97.8984 22.6836 100 24.7852 100 27.3672Z" fill="#0EA88A"/>
<path d="M92.8422 35.729C89.6465 35.729 87.0463 33.1305 87.0463 29.9368C87.0463 29.1276 86.3906 28.4719 85.5815 28.4719H39.1355C38.3264 28.4719 37.6707 29.1276 37.6707 29.9368C37.6707 33.1307 35.0707 35.729 31.875 35.729C31.0658 35.729 30.4102 36.3846 30.4102 37.1938V51.1954C30.4102 52.0045 31.0658 52.6602 31.875 52.6602C35.0707 52.6602 37.6707 55.2586 37.6707 58.4524C37.6707 59.2616 38.3264 59.9172 39.1355 59.9172H85.5815C86.3906 59.9172 87.0463 59.2616 87.0463 58.4524C87.0463 55.2584 89.6465 52.6602 92.8422 52.6602C93.6514 52.6602 94.307 52.0045 94.307 51.1954V37.1938C94.307 36.3846 93.6512 35.729 92.8422 35.729Z" fill="#09EAA3"/>
<path d="M62.2594 36.2196C57.8603 36.2196 54.2812 39.7969 54.2812 44.1944C54.2812 48.5919 57.8602 52.1694 62.2594 52.1694C66.6586 52.1694 70.2375 48.5919 70.2375 44.1944C70.2375 39.7969 66.6586 36.2196 62.2594 36.2196Z" fill="#14BB87"/>
<path d="M57.2629 93.6836C57.2629 97.166 54.4348 100 50.9588 100H6.3041C2.82812 100 0 97.166 0 93.6836C0 90.2012 2.82812 87.3691 6.3041 87.3691H6.85254L10.1471 82.8184C10.4223 82.4375 10.8633 82.2109 11.3318 82.2109C11.8021 82.2109 12.2434 82.4375 12.5186 82.8184L15.8131 87.3691H50.9588C54.4348 87.3693 57.2629 90.2014 57.2629 93.6836Z" fill="#4DD4F7"/>
<path d="M57.2623 93.6836C57.2623 97.166 54.4342 100 50.9582 100H47.0547C50.5307 100 53.3588 97.166 53.3588 93.6836C53.3588 90.2012 50.5307 87.3691 47.0547 87.3691H50.9582C54.4342 87.3693 57.2623 90.2014 57.2623 93.6836Z" fill="#00C2F3"/>
<path d="M100 6.31641C100 9.79883 97.1721 12.6309 93.6961 12.6309H89.7926L86.498 17.1816C86.2229 17.5625 85.7818 17.7891 85.3133 17.7891C84.843 17.7891 84.4018 17.5625 84.1266 17.1816L80.834 12.6309H60.6771C57.2012 12.6309 54.373 9.79883 54.373 6.31641C54.373 2.83398 57.2012 0 60.6771 0H93.6961C97.1721 0 100 2.83398 100 6.31641Z" fill="#FBDF63"/>
<path d="M100.001 6.31641C100.001 9.79883 97.1725 12.6309 93.6965 12.6309H89.793C93.2689 12.6309 96.0971 9.79883 96.0971 6.31641C96.0971 2.83398 93.2689 0 89.793 0H93.6965C97.1725 0 100.001 2.83398 100.001 6.31641Z" fill="#FFA402"/>
<path d="M92.1621 83.9008C92.1621 83.0916 91.5062 82.4359 90.6969 82.4359H68.7836C67.9742 82.4359 67.3184 83.0916 67.3184 83.9008C67.3184 84.7099 67.9742 85.3656 68.7836 85.3656H90.6969C91.5062 85.3656 92.1621 84.7099 92.1621 83.9008Z" fill="#90ABBD"/>
<path d="M90.6986 89.2719H80.7113C79.902 89.2719 79.2461 89.9275 79.2461 90.7367C79.2461 91.5459 79.902 92.2015 80.7113 92.2015H90.6986C91.508 92.2015 92.1639 91.5459 92.1639 90.7367C92.1639 89.9275 91.508 89.2719 90.6986 89.2719Z" fill="#90ABBD"/>
<path d="M28.6617 14.6211H9.43398C8.62461 14.6211 7.96875 15.2768 7.96875 16.0859C7.96875 16.8951 8.62461 17.5508 9.43398 17.5508H28.6615C29.4709 17.5508 30.1268 16.8951 30.1268 16.0859C30.1268 15.2768 29.4709 14.6211 28.6617 14.6211Z" fill="#90ABBD"/>
<path d="M9.43398 10.7148H19.6166C20.426 10.7148 21.0818 10.0592 21.0818 9.25C21.0818 8.44082 20.426 7.78516 19.6166 7.78516H9.43398C8.62461 7.78516 7.96875 8.44082 7.96875 9.25C7.96875 10.0592 8.6248 10.7148 9.43398 10.7148Z" fill="#90ABBD"/>
</g>
<defs>
<clipPath id="clip0">
<rect width="100" height="100" fill="white"/>
</clipPath>
</defs>
</svg>
