<svg width="44" height="44" viewBox="0 0 44 44" fill="none" xmlns="http://www.w3.org/2000/svg">
<circle cx="22" cy="22" r="22" fill="#FFFDCC"/>
<path d="M29.3284 12.9731C27.4112 11.0559 24.8621 10 22.1508 10C19.4394 10 16.8903 11.0559 14.9731 12.9731C13.0559 14.8904 12 17.4394 12 20.1507C12 25.6357 17.1863 30.1978 19.9725 32.6488C20.3596 32.9894 20.694 33.2835 20.9603 33.5322C21.2941 33.8441 21.7223 34 22.1507 34C22.5791 34 23.0074 33.844 23.3412 33.5323C23.6076 33.2835 23.9419 32.9894 24.329 32.6488C27.1153 30.1979 32.3015 25.6358 32.3015 20.1508C32.3015 17.4394 31.2457 14.8904 29.3284 12.9731ZM22.1508 24.2405C19.6842 24.2405 17.6775 22.2338 17.6775 19.7672C17.6775 17.3006 19.6842 15.2939 22.1508 15.2939C24.6174 15.2939 26.6241 17.3006 26.6241 19.7672C26.6241 22.2338 24.6173 24.2405 22.1508 24.2405Z" fill="#FFCB05"/>
</svg>
