<svg width="22" height="22" viewBox="0 0 22 22" fill="none" xmlns="http://www.w3.org/2000/svg">
<path d="M12.8092 10.3136C13.742 9.7152 14.3609 8.67387 14.3609 7.48587C14.3609 5.632 12.8532 4.12427 10.9993 4.12427C9.14547 4.12427 7.63774 5.632 7.63774 7.48587C7.63774 8.67387 8.25667 9.7152 9.18947 10.3136C7.28574 11.044 5.9276 12.892 5.9276 15.0509C5.9276 15.9603 6.6668 16.7024 7.57907 16.7024H14.4196C15.3289 16.7024 16.0711 15.9632 16.0711 15.0509C16.0711 12.892 14.7129 11.044 12.8092 10.3136ZM8.506 7.48587C8.506 6.11014 9.6236 4.99254 10.9993 4.99254C12.3751 4.99254 13.4927 6.11014 13.4927 7.48587C13.4927 8.8616 12.3751 9.9792 10.9993 9.9792C9.6236 9.9792 8.506 8.8616 8.506 7.48587ZM14.4196 15.8341H7.57907C7.14787 15.8341 6.79587 15.4821 6.79587 15.0509C6.79587 12.7336 8.682 10.8475 10.9993 10.8475C13.3167 10.8475 15.2028 12.7336 15.2028 15.0509C15.2028 15.4821 14.8508 15.8341 14.4196 15.8341Z" fill="#999999"/>
<path d="M11 22C4.93387 22 0 17.0661 0 11C0 4.93387 4.93387 0 11 0C17.0661 0 22 4.93387 22 11C22 17.0661 17.0661 22 11 22ZM11 0.88C5.4208 0.88 0.88 5.4208 0.88 11C0.88 16.5792 5.4208 21.12 11 21.12C16.5792 21.12 21.12 16.5792 21.12 11C21.12 5.4208 16.5792 0.88 11 0.88Z" fill="#999999"/>
</svg>
