<svg width="100" height="100" viewBox="0 0 100 100" fill="none" xmlns="http://www.w3.org/2000/svg">
<g clip-path="url(#clip0)">
<path d="M49.5332 93.6836C49.5332 97.166 46.7051 100 43.2285 100H6.30469C2.82812 100 0 97.166 0 93.6836C0 90.2012 2.82812 87.3691 6.30469 87.3691H6.85352L10.1484 82.8184C10.4238 82.4375 10.8652 82.2109 11.334 82.2109C11.8047 82.2109 12.2461 82.4375 12.5215 82.8184L15.8164 87.3691H43.2324C46.7051 87.3691 49.5332 90.2012 49.5332 93.6836Z" fill="#4DD4F7"/>
<path d="M99.3496 6.31641C99.3496 9.79883 96.5215 12.6309 93.0449 12.6309H89.1406L85.8457 17.1816C85.5703 17.5625 85.1289 17.7891 84.6602 17.7891C84.1895 17.7891 83.7481 17.5625 83.4727 17.1816L80.1797 12.6309H56.1172C52.6406 12.6309 49.8125 9.79883 49.8125 6.31641C49.8125 2.83398 52.6445 0 56.1191 0H93.0449C96.5215 0 99.3496 2.83398 99.3496 6.31641Z" fill="#FBDF63"/>
<path d="M99.3496 6.31641C99.3496 9.79883 96.5215 12.6309 93.0449 12.6309H89.1406C92.6172 12.6309 95.4453 9.79883 95.4453 6.31641C95.4453 2.83398 92.6172 0 89.1426 0H93.0469C96.5215 0 99.3496 2.83398 99.3496 6.31641Z" fill="#FFA402"/>
<path d="M49.5332 93.6836C49.5332 97.166 46.7051 100 43.2285 100H39.3242C42.8008 100 45.6289 97.166 45.6289 93.6836C45.6289 90.2012 42.8008 87.3691 39.3242 87.3691H43.2285C46.7051 87.3691 49.5332 90.2012 49.5332 93.6836Z" fill="#00C2F3"/>
<path d="M79.9883 39.0312V78.3398C79.9883 81.6289 77.0352 84.2969 73.3926 84.2969H28.043C24.4004 84.2969 21.4473 81.6289 21.4473 78.3398V23.5352C21.4473 20.2461 24.4004 17.5781 28.043 17.5781H56.2734C57.0234 17.5781 57.7559 17.7324 58.418 18.0195C58.916 18.2363 79.2988 36.6953 79.541 37.1758C79.832 37.752 79.9883 38.3848 79.9883 39.0312Z" fill="#D9F0F4"/>
<path d="M79.9883 39.0312V40.1621H62.7852C58.5078 40.1621 55.0273 37.0156 55.0273 33.1484V17.5781H56.2734C57.5859 17.5781 58.8457 18.0508 59.7734 18.8906L78.541 35.875C79.4688 36.7129 79.9883 37.8477 79.9883 39.0312Z" fill="#F9F8F9"/>
<path d="M32.9902 84.2949H28.043C24.4004 84.2949 21.4473 81.627 21.4473 78.3379V23.5352C21.4473 20.2461 24.4004 17.5781 28.043 17.5781H32.9902C29.3477 17.5781 26.3945 20.2461 26.3945 23.5352V78.3379C26.3945 81.6289 29.3477 84.2949 32.9902 84.2949Z" fill="#BAE1E5"/>
<path d="M51.3125 39.916H30.9141C30.2305 39.916 29.6777 39.416 29.6777 38.7988C29.6777 38.1816 30.2324 37.6816 30.9141 37.6816H51.3125C51.9961 37.6816 52.5488 38.1816 52.5488 38.7988C52.5488 39.416 51.9942 39.916 51.3125 39.916Z" fill="#90ABBD"/>
<path d="M51.3125 66.7227H30.9141C30.2305 66.7227 29.6777 66.2227 29.6777 65.6055C29.6777 64.9883 30.2324 64.4883 30.9141 64.4883H51.3125C51.9961 64.4883 52.5488 64.9883 52.5488 65.6055C52.5488 66.2227 51.9942 66.7227 51.3125 66.7227Z" fill="#90ABBD"/>
<path d="M67.5215 48.8516H30.584C29.9004 48.8516 29.3477 48.3516 29.3477 47.7344C29.3477 47.1172 29.9023 46.6172 30.584 46.6172H67.5215C68.2051 46.6172 68.7578 47.1172 68.7578 47.7344C68.7578 48.3516 68.2051 48.8516 67.5215 48.8516Z" fill="#90ABBD"/>
<path d="M67.5215 57.7871H30.584C29.9004 57.7871 29.3477 57.2871 29.3477 56.6699C29.3477 56.0527 29.9023 55.5527 30.584 55.5527H67.5215C68.2051 55.5527 68.7578 56.0527 68.7578 56.6699C68.7578 57.2871 68.2051 57.7871 67.5215 57.7871Z" fill="#90ABBD"/>
<path d="M0 41.9727V57.293C0 57.8066 0.554688 58.2226 1.23633 58.2226C1.91797 58.2226 2.47266 57.8066 2.47266 57.293V41.9727C2.47266 41.459 1.91797 41.043 1.23633 41.043C0.554688 41.043 0 41.4609 0 41.9727Z" fill="#90ABBD"/>
<path d="M6.39258 29.7988V57.541C6.39258 58.0547 6.94727 58.4707 7.62891 58.4707C8.3125 58.4707 8.86523 58.0547 8.86523 57.541V29.7988C8.86523 29.2852 8.31055 28.8691 7.62891 28.8691C6.94531 28.8691 6.39258 29.2852 6.39258 29.7988Z" fill="#90ABBD"/>
<path d="M79.3477 97.9121C88.592 97.9121 96.0859 90.4181 96.0859 81.1738C96.0859 71.9295 88.592 64.4355 79.3477 64.4355C70.1034 64.4355 62.6094 71.9295 62.6094 81.1738C62.6094 90.4181 70.1034 97.9121 79.3477 97.9121Z" fill="#09EAA3"/>
<path d="M92.7168 91.2441C89.6621 95.2949 84.8105 97.9121 79.3477 97.9121C70.1035 97.9121 62.6094 90.418 62.6094 81.1738C62.6094 75.7109 65.2266 70.8594 69.2773 67.8027C67.1621 70.6035 65.9082 74.0938 65.9082 77.875C65.9082 87.1191 73.4023 94.6133 82.6465 94.6133C86.4277 94.6133 89.916 93.3594 92.7168 91.2441Z" fill="#14BB87"/>
<path d="M78.1528 87.4395C77.52 87.4395 76.8872 87.1973 76.4048 86.7149L71.2095 81.5195C70.2427 80.5527 70.2427 78.9883 71.2095 78.0215C72.1763 77.0547 73.7407 77.0547 74.7075 78.0215L78.1528 81.4668L83.9888 75.6309C84.9556 74.6641 86.52 74.6641 87.4868 75.6309C88.4536 76.5977 88.4536 78.1621 87.4868 79.1289L79.9009 86.7149C79.4204 87.1992 78.7857 87.4395 78.1528 87.4395Z" fill="#F9F8F9"/>
<path d="M79.9883 39.0312V41.6504H62.7852C57.5996 41.6504 53.3789 37.8359 53.3789 33.1465V17.5781H56.2754C56.9922 17.5781 57.6934 17.7187 58.332 17.9824C58.8652 18.2031 79.3105 36.709 79.5547 37.1992C79.8359 37.7695 79.9883 38.3926 79.9883 39.0312Z" fill="#BAE1E5"/>
<path d="M79.543 37.1836H62.7832C60.3203 37.1836 58.3242 35.375 58.3242 33.1484V17.9844C58.8594 18.2012 59.3516 18.5078 59.7734 18.8906L78.541 35.875C78.9629 36.2559 79.3027 36.7012 79.543 37.1836Z" fill="#90ABBD"/>
</g>
<defs>
<clipPath id="clip0">
<rect width="99.3496" height="100" fill="white"/>
</clipPath>
</defs>
</svg>
