<svg width="56" height="56" viewBox="0 0 56 56" fill="none" xmlns="http://www.w3.org/2000/svg">
<g clip-path="url(#clip0)">
<path d="M55.5 28C55.5 35.3682 52.6793 42.0718 48.0681 47.0712C43.0016 52.5643 36.5102 53.5581 28.4867 53.5581C13.1608 53.5581 0 43.464 0 28C0 12.536 12.4241 0 27.75 0C43.0759 0 55.5 12.536 55.5 28Z" fill="#F8E000"/>
<path d="M47.2073 45.7852C47.1939 45.7905 47.1806 45.7957 47.1672 45.801C46.7464 45.966 46.2726 45.7371 46.1355 45.3031C44.8694 41.2928 42.2082 37.8288 38.6188 35.5798C38.6188 35.5791 38.6188 35.5783 38.6189 35.5775C38.6071 35.5701 38.3055 35.3857 38.2934 35.3785V35.3811C38.2643 35.3637 38.2351 35.3464 38.2057 35.3292C37.5392 34.9361 37.0352 34.3225 36.7545 33.5967C36.7499 33.585 36.7454 33.5734 36.7408 33.5616C36.2236 32.2427 36.4406 30.7412 37.3526 29.6619C38.9262 27.7994 39.5142 25.7406 39.7261 24.1442C39.9085 22.7697 40.5527 21.49 41.5614 20.5479C41.9601 20.1755 42.2724 19.6586 42.2816 18.9512V17.6284C42.2807 16.2001 41.4218 15.48 40.891 15.1714C40.7171 15.0702 40.6246 14.8815 40.624 14.679C40.6234 14.4946 40.487 14.321 40.3129 14.2696C40.0866 14.2028 39.9367 13.9853 39.9333 13.7474L39.8314 6.52426C39.8314 3.90168 37.7244 1.77576 35.1253 1.77576H25.565H25.5653C23.3821 1.77785 23.5057 1.77061 23.2755 1.78321C20.8108 1.91823 18.8284 3.97576 18.8284 6.52426V14.421L18.7614 14.3618C18.3566 14.0046 17.8207 14.6218 18.2259 14.9795L18.4608 15.1869C17.2825 15.3663 16.3783 16.3894 16.3783 17.6284V18.9512C16.3783 20.2752 17.4105 21.3529 18.7068 21.4172C18.7448 21.4738 18.786 21.5281 18.8284 21.5812C18.9135 21.993 18.0903 27.6313 23.2119 31.3701C22.42 32.326 21.8455 33.4706 21.5611 34.727C21.5545 34.7302 21.5471 34.7341 21.5385 34.7387C18.0657 36.6224 13.7201 35.2803 12.0312 31.6856C11.2142 29.9464 10.5841 28.1394 10.1419 26.2953C8.72894 20.4036 0.154139 21.2475 0.008275 27.3074C0.00403919 27.484 0.00143254 27.6611 0.000455041 27.8387C-0.0482025 36.5458 3.80878 44.3265 9.92333 49.4911L45.1444 49.8161C46.1828 48.972 47.1595 48.0541 48.067 47.0701C48.6362 46.4531 47.9855 45.4786 47.2073 45.7852Z" fill="#FFC305"/>
<path d="M19.04 23.7294V17.4621C17.6868 17.4621 16.5898 18.5689 16.5898 19.9343V21.2571C16.59 22.6225 17.6868 23.7294 19.04 23.7294Z" fill="#43265C"/>
<path d="M27.6331 34.1338C24.2938 34.1338 21.1716 35.0706 18.5098 36.6974V54.4083C21.4002 55.4379 24.5095 56 27.7493 56C30.9608 56 34.0441 55.4477 36.9132 54.4351V37.0355C36.9132 36.9564 36.9168 36.8784 36.922 36.801C34.2243 35.1108 31.042 34.1338 27.6331 34.1338Z" fill="#6EE1FF"/>
<path d="M22.1594 55.4317V35.0091C20.8715 35.4331 19.6482 36.0015 18.5098 36.6973V54.4082C19.692 54.8294 20.91 55.1738 22.1594 55.4317Z" fill="#05CDFF"/>
<path d="M27.6367 40.4006L30.3705 43.1591L27.6367 45.9175L24.9029 43.1591L27.6367 40.4006Z" fill="#8757F3"/>
<path d="M27.6335 30.9947C23.2311 30.9947 19.6621 34.5957 19.6621 39.0379C19.6621 41.9946 21.2443 44.577 23.6 45.9746L27.6801 41.8577L31.7261 45.9402C34.0494 44.5348 35.6048 41.9699 35.6048 39.0379C35.6048 34.5957 32.036 30.9947 27.6335 30.9947Z" fill="#05CDFF"/>
<path d="M27.6348 40.4006L30.6779 43.4711L27.6348 46.5416L24.5917 43.4711L27.6348 40.4006Z" fill="#1A396B"/>
<path d="M27.6335 29.7051C23.2311 29.7051 19.6621 33.3061 19.6621 37.7483C19.6621 40.705 21.2443 43.2874 23.6 44.685L27.6801 40.5682L31.7261 44.6507C34.0494 43.2452 35.6048 40.6804 35.6048 37.7483C35.6048 33.3062 32.036 29.7051 27.6335 29.7051Z" fill="white"/>
<path d="M19.1617 15.4005V7.74785C19.1617 5.12528 21.2687 2.99936 23.8678 2.99936H21.837C19.2378 2.99936 17.1309 5.12539 17.1309 7.74785V15.4005C17.1309 18.023 19.2379 18.539 21.837 18.539H23.8678C21.2687 18.5389 19.1617 18.0229 19.1617 15.4005Z" fill="#5A2D19"/>
<path d="M27.6847 40.4079C25.6519 40.4079 24.0039 38.7451 24.0039 36.6941V28.3755H31.3654V36.6941C31.3655 38.7451 29.7176 40.4079 27.6847 40.4079Z" fill="#FF965A"/>
<path d="M37.6696 15.3447C37.6696 11.9554 35.5147 8.85611 32.1556 8.85611H23.2133C22.1233 8.85611 21.1379 9.184 20.3027 9.74071V28.4274C20.3027 30.9099 21.8267 33.1556 24.1444 33.9885C25.2509 34.3861 26.4426 34.6026 27.6845 34.6026C33.4557 34.6026 38.1343 29.882 38.1343 24.0586V20.7299L37.6696 15.3447Z" fill="#FFBE82"/>
<path d="M38.1348 22.647V16.3797C39.4879 16.3797 40.5849 17.4866 40.5849 18.852V20.1748C40.5849 21.5402 39.4879 22.647 38.1348 22.647Z" fill="#FF965A"/>
<path d="M17.1318 22.647V16.3797C15.7786 16.3797 14.6816 17.4866 14.6816 18.852V20.1748C14.6817 21.5402 15.7786 22.647 17.1318 22.647Z" fill="#FF965A"/>
<path d="M24.0402 21.7403C23.5596 21.7403 23.1699 21.3471 23.1699 20.8622V18.4604C23.1699 17.9755 23.5596 17.5823 24.0402 17.5823C24.5208 17.5823 24.9105 17.9755 24.9105 18.4604V20.8622C24.9105 21.3471 24.5208 21.7403 24.0402 21.7403Z" fill="#FF965A"/>
<path d="M31.1476 21.7403C30.667 21.7403 30.2773 21.3471 30.2773 20.8622V18.4604C30.2773 17.9755 30.667 17.5823 31.1476 17.5823C31.6282 17.5823 32.0179 17.9755 32.0179 18.4604V20.8622C32.018 21.3471 31.6283 21.7403 31.1476 21.7403Z" fill="#FF965A"/>
<path d="M20.6457 24.3608V24.3306C20.6457 23.538 21.4561 23.0333 22.1739 23.3555C22.6023 23.5478 23.0782 23.6513 23.5784 23.643C25.4074 23.6124 26.8537 22.0603 26.8537 20.2146V18.649C26.8537 18.4224 26.6716 18.2387 26.447 18.2387H23.1112C21.7495 18.2387 20.6457 17.125 20.6457 15.7511C20.6457 12.3618 23.3688 9.6142 26.7278 9.6142H34.3184C33.6506 9.35261 32.9226 9.20773 32.1553 9.20773H23.2129C19.8539 9.20773 17.1309 11.9553 17.1309 15.3446V23.9543C17.1309 28.5235 19.9796 32.4082 23.9667 33.9232C24.7116 34.2063 25.265 33.2032 24.6417 32.7039C22.2071 30.7537 20.6457 27.7413 20.6457 24.3608ZM21.0041 19.0595H26.0403V20.2821C26.0403 21.6831 24.9107 22.8229 23.5223 22.8229C22.1338 22.8229 21.0042 21.6831 21.0042 20.2821V19.0595H21.0041Z" fill="#FF965A"/>
<path d="M34.7424 18.2388H28.893C28.6684 18.2388 28.4863 18.4225 28.4863 18.6491V20.2821C28.4863 22.1356 29.9808 23.6435 31.8177 23.6435C33.6547 23.6435 35.1491 22.1356 35.1491 20.2821V18.6491C35.1491 18.4225 34.967 18.2388 34.7424 18.2388ZM34.3358 20.2821C34.3358 21.6831 33.2062 22.8228 31.8177 22.8228C30.4293 22.8228 29.2997 21.6831 29.2997 20.2821V19.0594H34.3359V20.2821H34.3358Z" fill="#FF965A"/>
<path d="M24.0402 21.037C23.5596 21.037 23.1699 20.6438 23.1699 20.1588V17.7571C23.1699 17.2721 23.5596 16.8789 24.0402 16.8789C24.5208 16.8789 24.9105 17.2721 24.9105 17.7571V20.1588C24.9105 20.6438 24.5208 21.037 24.0402 21.037Z" fill="#373C41"/>
<path d="M31.1476 21.037C30.667 21.037 30.2773 20.6438 30.2773 20.1588V17.7571C30.2773 17.2721 30.667 16.8789 31.1476 16.8789C31.6282 16.8789 32.0179 17.2721 32.0179 17.7571V20.1588C32.018 20.6438 31.6283 21.037 31.1476 21.037Z" fill="#373C41"/>
<path d="M25.1877 16.4397H22.6496C22.1689 16.4397 21.7793 16.0465 21.7793 15.5615C21.7793 15.0765 22.169 14.6834 22.6496 14.6834H25.1877C25.6684 14.6834 26.058 15.0766 26.058 15.5615C26.0581 16.0465 25.6684 16.4397 25.1877 16.4397Z" fill="#783C28"/>
<path d="M32.4397 16.4397H29.9015C29.4208 16.4397 29.0312 16.0465 29.0312 15.5615C29.0312 15.0765 29.4209 14.6834 29.9015 14.6834H32.4397C32.9204 14.6834 33.31 15.0766 33.31 15.5615C33.3101 16.0465 32.9204 16.4397 32.4397 16.4397Z" fill="#783C28"/>
<path d="M24.48 25.8952C24.214 25.8952 24.0016 26.1294 24.0371 26.3954C24.2792 28.21 25.82 29.6091 27.6848 29.6091C29.5495 29.6091 31.0904 28.21 31.3325 26.3954C31.368 26.1294 31.1554 25.8952 30.8896 25.8952H24.48Z" fill="#E20A62"/>
<path d="M26.2739 22.2836C26.0576 23.1554 26.4507 24.105 27.2028 24.3912C27.3541 24.4489 27.5159 24.48 27.6841 24.48C27.8524 24.48 28.0142 24.4488 28.1656 24.3912C28.9175 24.105 29.3108 23.1554 29.0944 22.2836L28.3772 19.3935C28.1965 18.666 27.1718 18.666 26.9913 19.3935L26.2739 22.2836Z" fill="#FF965A"/>
<path d="M38.134 7.74785C38.134 5.12528 36.0269 2.99936 33.4279 2.99936H21.837C19.2378 2.99936 17.1309 5.12539 17.1309 7.74785V15.4003V15.4007V20.73C17.9038 20.73 18.5305 20.0977 18.5305 19.3177V13.0817C18.5305 11.7042 19.2987 10.4346 20.5264 9.83213C20.5574 9.81689 20.5884 9.80199 20.6193 9.78752C21.6417 9.30807 22.755 10.2929 22.408 11.3753C22.4038 11.3885 22.3996 11.4019 22.3954 11.4152C22.1605 12.1697 22.7241 12.9368 23.5077 12.9368H28.6364C30.5256 12.9368 32.1709 11.8853 33.0299 10.3309C33.3579 9.73733 34.0906 9.48922 34.6996 9.77941C34.7114 9.78511 34.7233 9.79081 34.7351 9.79651C35.9669 10.3938 36.7342 11.6687 36.7342 13.0477V19.3178C36.7342 20.0978 37.3609 20.7301 38.1339 20.7301V15.3447V7.74785H38.134Z" fill="#783C28"/>
<path d="M20.6165 7.74785C20.6165 5.12528 22.7235 2.99936 25.3226 2.99936H21.837C19.2378 2.99936 17.1309 5.12539 17.1309 7.74785V15.4003V15.4007V20.73C17.9038 20.73 18.5305 20.0977 18.5305 19.3177V13.0817C18.5305 11.7042 19.2987 10.4346 20.5264 9.83213C20.5564 9.81733 20.5865 9.80298 20.6165 9.78884V7.74785Z" fill="#5A2D19"/>
<path d="M36.5166 10.3309C36.3922 10.556 36.2495 10.7691 36.0938 10.9714C36.504 11.5699 36.7352 12.2927 36.7352 13.0476V19.3177C36.7352 20.0977 37.3619 20.73 38.1349 20.73V15.3447V9.75795C37.5365 9.5048 36.8355 9.75378 36.5166 10.3309Z" fill="#5A2D19"/>
<path d="M26.9935 12.9368C26.2099 12.9368 25.6462 12.1696 25.8812 11.4153C25.8853 11.402 25.8896 11.3886 25.8938 11.3753C26.2408 10.293 25.1273 9.30815 24.105 9.78761C24.074 9.80207 24.0431 9.81698 24.012 9.83221C23.2804 10.1913 22.7138 10.7883 22.374 11.5029C22.2067 12.2279 22.7545 12.9369 23.5079 12.9369H28.6366H28.6367H26.9935V12.9368Z" fill="#A55A3C"/>
<path d="M23.4908 19.3529C23.3135 19.3529 23.1699 19.2079 23.1699 19.0292V18.0488C23.1699 17.8699 23.3136 17.7251 23.4908 17.7251C23.6679 17.7251 23.8116 17.8701 23.8116 18.0488V19.0292C23.8116 19.2079 23.6679 19.3529 23.4908 19.3529Z" fill="white"/>
<path d="M30.5826 19.3529C30.4053 19.3529 30.2617 19.2079 30.2617 19.0292V18.0488C30.2617 17.8699 30.4054 17.7251 30.5826 17.7251C30.7598 17.7251 30.9034 17.8701 30.9034 18.0488V19.0292C30.9034 19.2079 30.7598 19.3529 30.5826 19.3529Z" fill="white"/>
<path d="M23.5228 23.0573C21.6859 23.0573 20.1914 21.5494 20.1914 19.6959V18.0629C20.1914 17.8363 20.3734 17.6526 20.598 17.6526H26.4475C26.6721 17.6526 26.8541 17.8363 26.8541 18.0629V19.6959C26.8542 21.5494 25.3598 23.0573 23.5228 23.0573ZM21.0048 18.4732V19.6959C21.0048 21.0969 22.1343 22.2366 23.5228 22.2366C24.9113 22.2366 26.0408 21.0969 26.0408 19.6959V18.4732H21.0048Z" fill="#8757F3"/>
<path d="M31.8177 23.0573C29.9808 23.0573 28.4863 21.5494 28.4863 19.6959V18.0629C28.4863 17.8363 28.6684 17.6526 28.893 17.6526H34.7424C34.967 17.6526 35.149 17.8363 35.149 18.0629V19.6959C35.1492 21.5494 33.6547 23.0573 31.8177 23.0573ZM29.2997 18.4732V19.6959C29.2997 21.0969 30.4293 22.2366 31.8177 22.2366H31.8178C33.2063 22.2366 34.3359 21.0969 34.3359 19.6959V18.4732H29.2997Z" fill="#8757F3"/>
<path d="M31.8168 23.0573C31.5922 23.0573 31.4102 22.8737 31.4102 22.647C31.4102 22.4204 31.5922 22.2367 31.8168 22.2367C33.2053 22.2367 34.3348 21.097 34.3348 19.696C34.3348 19.4694 34.5168 19.2857 34.7415 19.2857C34.9661 19.2857 35.1481 19.4694 35.1481 19.696C35.1482 21.5494 33.6537 23.0573 31.8168 23.0573Z" fill="#6A2BC2"/>
<path d="M25.9706 44.1041L25.2734 48.6372L25.6702 55.922C26.3568 55.9733 27.0502 56.0001 27.7499 56.0001C28.3705 56.0001 28.9859 55.9774 29.5964 55.9369L29.9939 48.6372L29.2967 44.1041H25.9706Z" fill="#1A396B"/>
<path d="M14.1113 44.7637V52.3893C15.5866 53.2309 17.1453 53.9408 18.7726 54.5018V36.5403C18.7549 36.5507 18.7372 36.5611 18.7195 36.5716C15.8487 38.2719 14.1113 41.405 14.1113 44.7637Z" fill="#2D56A1"/>
<path d="M10.1445 49.6441C11.4408 50.7187 12.8358 51.6761 14.3129 52.5025C14.4799 48.2347 16.1367 44.3541 18.7732 41.374V36.5403C14.1443 39.2598 10.8555 44.0451 10.1445 49.6441Z" fill="#1A396B"/>
<path d="M45.1429 49.8156C44.6093 45.2661 42.3742 41.2437 39.0977 38.4117V53.5582C41.2765 52.5717 43.3056 51.3089 45.1429 49.8156Z" fill="#2D56A1"/>
<path d="M36.5977 54.5462C37.876 54.1127 39.1124 53.5874 40.2999 52.9789V39.5511C39.2045 38.4103 37.9608 37.4155 36.5977 36.602V54.5462Z" fill="#1A396B"/>
<path d="M24.5254 27.8019C25.1686 28.8844 26.3423 29.6092 27.6842 29.6092C28.2655 29.6092 28.815 29.4728 29.3038 29.2307C29.0938 27.9007 27.9521 26.8842 26.5749 26.8842C25.762 26.8842 25.0312 27.2382 24.5254 27.8019Z" fill="#FF5551"/>
<path d="M29.4747 26.8842H25.7927C25.506 26.8842 25.2734 26.6496 25.2734 26.3602V25.8952H29.9939V26.3602C29.9939 26.6495 29.7614 26.8842 29.4747 26.8842Z" fill="white"/>
<path d="M29.33 20.2068H28.5167C28.5167 19.7443 28.1438 19.3681 27.6855 19.3681C27.2272 19.3681 26.8543 19.7443 26.8543 20.2068H26.041C26.041 19.2918 26.7788 18.5475 27.6855 18.5475C28.5922 18.5475 29.33 19.292 29.33 20.2068Z" fill="#8757F3"/>
<path d="M36.0934 18.4732H34.7895C34.5648 18.4732 34.3828 18.2896 34.3828 18.0629C34.3828 17.8363 34.5648 17.6526 34.7895 17.6526H35.939L38.2452 15.5874C38.4133 15.437 38.6703 15.4525 38.8193 15.622C38.9685 15.7915 38.9532 16.0508 38.7851 16.2012L36.3634 18.3699C36.2889 18.4364 36.193 18.4732 36.0934 18.4732Z" fill="#8757F3"/>
<path d="M20.5899 18.4732H19.254C19.1555 18.4732 19.0604 18.4372 18.9863 18.3718L16.5295 16.2031C16.3605 16.0538 16.3434 15.7947 16.4912 15.624C16.639 15.4535 16.896 15.4362 17.0651 15.5853L19.4068 17.6525H20.59C20.8146 17.6525 20.9967 17.8362 20.9967 18.0628C20.9967 18.2894 20.8145 18.4732 20.5899 18.4732Z" fill="#8757F3"/>
<path d="M20.598 19.4697C20.3734 19.4697 20.1914 19.286 20.1914 19.0594V18.0629C20.1914 17.8363 20.3734 17.6526 20.598 17.6526H26.4475C26.6721 17.6526 26.8541 17.8363 26.8541 18.0629C26.8541 18.2895 26.6721 18.4732 26.4475 18.4732H21.0047V19.0594C21.0047 19.286 20.8227 19.4697 20.598 19.4697Z" fill="#6A2BC2"/>
</g>
<defs>
<clipPath id="clip0">
<rect width="55.5" height="56" fill="white"/>
</clipPath>
</defs>
</svg>
