<svg xmlns="http://www.w3.org/2000/svg" viewBox="0 0 587 169">
    <g stroke="none" stroke-width="1" fill="none" fill-rule="evenodd">
        <g fill-rule="nonzero">
            <path d="M0.165,94.288 C0.165,63.647 0.185,33.006 0.112,2.365 C0.107,0.614 0.597,0.421 2.145,0.422 C61.902,0.464 121.66,0.458 181.417,0.458 C179.657,2.02 180.592,3.099 181.856,4.489 C184.777,7.7 187.68,10.934 190.483,14.254 C192.19,16.276 193.296,18.599 194.199,21.038 C194.939,23.037 194.71,23.541 192.638,24.255 C189.541,25.322 186.341,26.091 183.37,27.522 C182.337,28.02 181.459,27.552 180.589,27.013 C178.32,25.607 176.06,24.187 173.852,22.686 C173.474,22.429 173.083,22.189 172.678,21.975 C171.765,21.493 170.655,21.059 169.895,21.819 C168.997,22.717 170.197,23.436 170.648,24.098 C171.722,25.671 172.86,27.204 173.952,28.766 C175.234,30.601 175.111,30.978 173.123,32.04 C172.448,32.401 171.806,32.795 171.113,33.46 C171.97,34.079 172.86,33.99 173.7,33.907 C175.433,33.736 176,34.625 176.055,36.195 C176.128,38.266 175.411,40.272 175.609,42.343 C175.677,43.052 175.333,44.054 176.367,44.249 C177.297,44.425 177.925,43.743 178.308,42.937 C179.519,40.389 180.964,37.947 181.927,35.289 C182.625,33.364 183.889,32.29 185.924,32.037 C188.506,31.716 190.992,30.968 193.488,30.259 C196.524,29.396 197,29.865 197.633,32.875 C198.559,37.278 197.604,41.533 196.952,45.811 C196.458,49.049 196.076,52.307 195.344,55.67 C197.019,55.776 197.841,54.904 198.437,53.574 C199.999,50.094 201.357,46.529 202.819,43.008 C204.749,38.36 206.8,33.756 208.5,29.019 C209.42,26.454 211.116,25.073 213.683,24.393 C218.253,23.183 222.781,21.82 227.271,20.334 C229.183,19.701 230.886,18.716 232.491,17.54 C233.153,17.054 234.08,16.574 233.861,15.614 C233.612,14.523 232.478,14.533 231.605,14.423 C228.981,14.093 226.424,14.646 223.923,15.31 C220.018,16.348 216.103,17.384 212.274,18.669 C209.555,19.581 207.244,19.203 204.979,17.498 C198.093,12.315 190.906,7.55 183.979,2.422 C183.296,1.917 182.248,1.638 182.33,0.459 C316.153,0.459 449.976,0.463 583.8,0.416 C585.54,0.415 586.091,0.602 586.087,2.576 C586.011,48.404 586.028,94.231 586.028,140.059 C584.837,139.987 584.935,138.921 584.724,138.214 C583.065,132.667 579.442,128.517 575.279,124.737 C572.682,122.379 570.103,120.017 568.236,116.984 C566.505,114.172 566.031,111.274 567.686,108.327 C569.327,105.403 571.975,104.174 575.31,104.198 C578.412,104.221 581.093,105.281 583.615,107.329 C583.569,104.414 583.598,101.683 583.587,98.952 C583.583,97.877 583.277,97.006 582.21,96.548 C572.214,92.262 559.714,95.871 557.091,108.309 C555.478,115.955 558.266,122.201 563.613,127.539 C565.986,129.908 568.375,132.262 570.716,134.662 C572.375,136.363 573.839,138.212 574.647,140.492 C576.595,145.985 572.911,151.302 567.101,151.678 C563.206,151.93 560.012,150.353 556.487,148.103 C556.388,151.6 556.352,154.74 556.52,157.883 C556.561,158.647 557.113,159.128 557.806,159.341 C565.198,161.613 572.468,162.312 579.216,157.439 C581.921,155.486 583.409,152.676 584.511,149.61 C584.818,148.755 584.699,147.563 586.025,147.383 C586.025,153.867 585.997,160.352 586.054,166.835 C586.063,167.819 585.865,168.184 584.879,167.989 C584.585,167.931 584.271,167.98 583.965,167.98 C414.232,167.98 244.498,167.98 74.765,167.98 C74.953,166.722 76.07,166.885 76.862,166.722 C79.236,166.233 81.641,165.895 83.976,165.225 C105.514,159.322 120.539,146.002 129.226,125.474 C130.776,121.811 131.236,117.826 132.493,114.072 C133.535,110.291 133.596,106.386 133.897,102.521 C134.205,98.56 133.63,94.623 133.136,90.7 C132.649,86.835 131.462,83.119 130.475,79.317 C129.102,80.9 127.793,82.568 126.496,84.244 C121.383,90.333 117.228,97.086 113.006,103.791 C107.445,112.624 102.111,121.605 95.72,129.891 C88.969,138.645 80.759,145.476 70.29,149.348 C65.328,151.183 60.161,152.031 54.908,152.576 C44.633,153.642 34.557,152.243 24.497,150.438 C24.152,150.376 23.776,150.183 23.345,150.608 C28.408,155.194 34.007,158.898 40.282,161.572 C45.562,163.888 51.036,165.531 56.723,166.499 C57.804,166.683 59.22,166.432 59.662,167.98 C40.362,167.98 21.062,167.962 1.762,168.018 C0.397,168.022 0.118,167.743 0.122,166.378 C0.178,146.62 0.16,126.863 0.16,107.105 C1.634,107.518 1.409,108.881 1.551,109.888 C1.945,112.689 2.651,115.415 3.225,118.173 C3.637,120.154 4.718,120.796 6.618,120.657 C8.515,120.519 10.383,120.027 12.303,120.184 C13.163,120.236 14.018,120.231 14.848,119.944 C15.459,119.801 16.08,119.767 16.703,119.752 C20.642,119.345 24.541,118.712 28.375,117.711 C31.278,117.048 34.156,116.293 36.983,115.352 C39.733,114.716 42.188,113.321 44.784,112.292 C50.726,109.234 56.195,105.547 60.574,100.412 C63.443,97.891 65.804,94.928 68.026,91.844 C70.796,87.517 74.388,83.798 77.16,79.473 C78.499,77.632 80.068,75.962 81.213,73.978 C82.336,72.199 83.831,70.704 85.025,68.978 C87.032,66.857 89.22,64.903 90.981,62.553 C93.564,59.407 96.93,57.072 99.711,54.131 C101.736,52.298 103.889,50.618 106.127,49.061 C107.51,48.098 107.341,47.458 106.074,46.572 C101.768,43.56 97.188,41.073 92.295,39.164 C91.167,38.724 89.988,38.412 88.912,37.833 C84.441,36.351 79.877,35.3 75.197,34.759 C74.208,34.428 73.192,34.49 72.175,34.555 C69.198,34.55 66.223,34.621 63.251,34.519 C56.345,34.739 49.752,36.401 43.339,38.88 C42.561,39.181 41.783,39.484 41.007,39.786 C35.074,41.958 29.975,45.539 25.107,49.44 C17.582,55.471 11.904,63.02 7.565,71.59 C6.572,73.551 5.706,75.583 5.051,77.695 C3.422,82.113 2.35,86.665 1.575,91.304 C1.402,92.367 1.723,93.82 0.165,94.288 Z" id="Shape" fill="#FEFEFE"></path>
            <path d="M59.667,167.979 C57.99,166.764 55.932,167.126 54.071,166.662 C49.249,165.458 44.385,164.423 39.977,161.986 C38.761,160.596 40.247,160.681 40.846,160.605 C42.583,160.383 44.344,160.495 46.094,160.514 C54.857,160.607 63.388,159.253 71.668,156.395 C90.662,149.838 105.115,137.832 115.296,120.478 C121.318,110.214 124.463,99.151 125.808,87.454 C125.939,86.317 125.624,85.168 125.955,84.045 C127.391,82.187 128.826,80.329 130.504,78.157 C132.082,81.965 132.92,85.615 133.538,89.314 C134.944,97.726 135.037,106.122 133.009,114.467 C132.24,114.947 132.012,115.768 131.674,116.533 C126.343,128.582 119.176,139.379 109.516,148.392 C103.196,154.289 96.141,159.205 88.426,163.145 C87.008,163.869 85.493,164.45 84.381,165.67 C81.713,166.703 78.869,166.914 76.094,167.445 C75.626,167.535 75.002,167.29 74.769,167.98 C74.311,167.98 73.854,167.98 73.396,167.98 C73.091,167.692 72.786,167.692 72.481,167.98 C71.566,167.98 70.65,167.98 69.735,167.98 C68.057,167.606 66.378,167.606 64.7,167.98 C63.937,167.98 63.174,167.98 62.411,167.98 C62.106,167.692 61.801,167.692 61.496,167.98 C60.887,167.979 60.277,167.979 59.667,167.979 Z" id="Shape" fill="#1B71AC"></path>
            <path d="M586.031,147.382 C585.278,147.758 585.416,148.563 585.244,149.174 C583.31,156.055 578.078,160.636 570.917,161.507 C566.302,162.069 561.794,161.503 557.423,159.872 C556.575,159.556 555.954,159.265 555.971,158.164 C556.026,154.534 555.992,150.902 555.992,146.997 C557.37,147.89 558.475,148.647 559.62,149.339 C561.904,150.72 564.38,151.299 567.056,151.124 C573.082,150.73 576.417,144.915 573.632,139.549 C572.17,136.732 569.937,134.523 567.67,132.362 C564.63,129.466 561.607,126.552 559.215,123.074 C553.622,114.941 555.43,103.044 563.319,97.496 C569.649,93.044 576.457,93.333 583.332,96.306 C584.041,96.613 584.373,97.074 584.367,97.879 C584.339,101.436 584.355,104.993 584.355,108.992 C581.527,105.936 578.358,104.613 574.578,104.762 C569.115,104.977 565.81,110.105 567.966,115.144 C569.13,117.865 571.124,119.979 573.257,121.962 C575.883,124.403 578.467,126.874 580.821,129.594 C583.469,132.654 584.717,136.362 586.033,140.058 C586.033,140.363 586.033,140.668 586.033,140.973 C585.644,142.804 585.644,144.635 586.033,146.465 C586.031,146.772 586.031,147.077 586.031,147.382 Z" id="Shape" fill="#2B86C6"></path>
            <path d="M182.332,0.458 C190.445,6.272 198.554,12.091 206.674,17.894 C207.916,18.782 209.2,18.928 210.76,18.491 C216.255,16.951 221.633,14.957 227.29,14.024 C229.253,13.7 231.231,13.555 233.183,14.098 C235.275,14.68 235.532,15.52 233.972,17.07 C232.332,18.7 230.319,19.802 228.164,20.624 C223.388,22.446 218.44,23.725 213.515,25.034 C211.151,25.663 209.958,26.982 209.104,29.115 C205.938,37.025 202.546,44.847 199.504,52.804 C198.557,55.281 197.191,56.544 194.589,56.696 C195.334,52.084 195.962,47.454 196.857,42.877 C197.601,39.07 197.592,35.33 196.858,31.543 C196.638,30.41 196.34,29.964 195.09,30.387 C191.766,31.511 188.359,32.351 184.878,32.816 C183.873,32.95 183.473,33.471 183.099,34.292 C181.806,37.13 180.372,39.906 179.152,42.774 C178.58,44.119 177.722,44.75 176.358,45.107 C175.175,45.416 174.863,45.157 174.951,43.983 C175.146,41.399 175.246,38.807 175.422,36.221 C175.516,34.836 175.611,33.855 173.559,34.52 C172.402,34.895 170.954,34.369 169.328,34.221 C170.715,32.965 171.654,31.567 173.452,31.236 C174.471,31.048 174.641,30.639 173.951,29.72 C171.993,27.108 170.139,24.418 168.241,21.752 C170.208,20.54 171.886,20.473 173.762,21.901 C175.997,23.602 178.506,24.94 180.846,26.511 C181.816,27.162 182.595,27.336 183.742,26.778 C186.623,25.377 189.694,24.44 192.807,23.685 C194.108,23.37 194.482,22.993 193.87,21.542 C192.466,18.211 190.763,15.166 188.24,12.513 C184.941,9.044 181.869,5.359 178.655,1.717 C179.414,0.906 180.706,1.291 181.413,0.459 C181.722,0.458 182.027,0.458 182.332,0.458 Z" id="Shape" fill="#275E90"></path>
            <path d="M0.165,94.288 C1.231,92.414 1.013,90.258 1.46,88.247 C2.287,84.525 3.008,80.783 4.625,77.294 C6.201,77.416 5.672,78.684 5.776,79.527 C6.296,83.753 6.476,88.012 7.75,92.14 C10.933,102.458 17.211,110.258 26.481,115.72 C27.464,116.299 28.857,116.619 28.616,118.262 C24.706,119.416 20.695,119.981 16.643,120.307 C10.418,115.514 5.46,109.68 2.094,102.547 C1.639,101.582 0.908,100.787 0.484,99.809 C0.246,99.212 0.639,98.507 0.165,97.95 C0.165,96.729 0.165,95.508 0.165,94.288 Z" id="Shape" fill="#1679B8"></path>
            <path d="M0.667,99.78 C1.857,100.388 2.219,101.605 2.752,102.677 C5.829,108.861 9.919,114.225 15.397,118.491 C15.982,118.947 16.613,119.438 16.642,120.306 C16.074,120.343 15.505,120.379 14.937,120.416 C14.177,120.801 13.321,120.425 12.55,120.717 C10.049,120.91 7.542,121.044 5.051,121.321 C3.801,121.46 3.297,120.96 2.999,119.835 C1.966,115.944 1.085,112.026 0.646,108.018 C0.605,107.643 0.627,107.25 0.166,107.103 C0.166,106.035 0.166,104.967 0.166,103.899 C0.815,102.586 -0.04,101.088 0.667,99.78 Z" id="Shape" fill="#1877B6"></path>
            <path d="M0.667,99.78 C0.321,101.131 1.161,102.627 0.164,103.899 C0.164,101.916 0.164,99.932 0.164,97.949 C0.909,98.401 0.502,99.169 0.667,99.78 Z" id="Shape" fill="#67A6CF"></path>
            <path d="M586.031,146.467 C585.29,144.636 585.313,142.805 586.031,140.975 C586.031,142.805 586.031,144.636 586.031,146.467 Z" id="Shape" fill="#75B0DA"></path>
            <path d="M64.701,167.979 C66.379,167.237 68.058,167.239 69.736,167.979 C68.058,167.979 66.38,167.979 64.701,167.979 Z" id="Shape" fill="#337EB4"></path>
            <path d="M61.498,167.979 C61.803,167.402 62.108,167.471 62.413,167.979 C62.108,167.979 61.803,167.979 61.498,167.979 Z" id="Shape" fill="#8EB8D6"></path>
            <path d="M72.483,167.979 C72.788,167.472 73.093,167.392 73.398,167.979 C73.093,167.979 72.788,167.979 72.483,167.979 Z" id="Shape" fill="#92BAD6"></path>
            <path d="M161.807,97.535 C160.67,117.635 159.498,137.732 158.443,157.836 C158.324,160.106 157.623,160.834 155.358,160.631 C152.861,160.407 150.327,160.539 147.812,160.598 C146.65,160.625 146.261,160.381 146.376,159.059 C149.09,127.84 151.757,96.618 154.389,65.392 C154.495,64.132 154.859,63.666 156.149,63.703 C158.893,63.783 161.644,63.811 164.385,63.694 C165.897,63.63 166.482,64.113 166.772,65.631 C169.483,79.851 172.275,94.056 175.052,108.263 C176.453,115.431 177.871,122.595 179.639,129.82 C180.363,126.287 181.1,122.756 181.809,119.22 C185.371,101.442 188.941,83.666 192.458,65.879 C192.772,64.293 193.305,63.544 195.093,63.68 C197.52,63.865 199.974,63.8 202.411,63.698 C203.836,63.638 204.362,64.025 204.484,65.55 C205.268,75.354 206.175,85.147 207.032,94.945 C208.819,115.376 210.584,135.809 212.396,156.237 C212.782,160.584 212.855,160.578 208.422,160.578 C206.439,160.578 204.452,160.506 202.474,160.603 C201.144,160.669 200.64,160.335 200.563,158.872 C199.856,145.393 199.057,131.92 198.286,118.444 C197.85,110.831 197.416,103.218 196.974,95.606 C196.958,95.33 196.855,95.058 196.746,94.579 C195.666,95.317 196.124,96.331 195.975,97.102 C192.006,117.752 188.065,138.407 184.157,159.069 C183.949,160.167 183.571,160.695 182.396,160.596 C181.411,160.513 180.414,160.579 179.423,160.579 C175.027,160.579 175.02,160.58 174.213,156.341 C170.395,136.282 166.58,116.222 162.769,96.162 C162.684,95.713 162.657,95.254 162.603,94.8 C162.009,94.462 162.014,94.937 161.972,95.286 C161.881,96.033 162.095,96.802 161.807,97.535 Z" id="Shape" fill="#275E90"></path>
            <path d="M335.278,95.24 C334.057,116.399 332.816,137.557 331.654,158.72 C331.57,160.246 331.107,160.666 329.65,160.612 C326.908,160.512 324.157,160.512 321.414,160.612 C319.995,160.664 319.575,160.259 319.706,158.808 C320.691,147.876 321.6,136.937 322.539,126 C323.557,114.152 324.58,102.305 325.606,90.459 C326.323,82.182 327.104,73.909 327.728,65.625 C327.853,63.963 328.47,63.627 329.96,63.693 C332.472,63.803 335.002,63.853 337.507,63.679 C339.268,63.557 339.848,64.234 340.158,65.862 C342.593,78.66 345.106,91.442 347.597,104.229 C349.155,112.23 350.715,120.232 352.28,128.232 C352.38,128.745 352.537,129.247 352.985,129.766 C354.204,123.774 355.437,117.785 356.641,111.79 C359.729,96.404 362.83,81.021 365.845,65.621 C366.148,64.075 366.769,63.632 368.254,63.693 C370.843,63.798 373.441,63.775 376.032,63.7 C377.3,63.663 377.712,64.103 377.819,65.379 C379.315,83.154 380.858,100.924 382.409,118.694 C383.555,131.831 384.687,144.97 385.935,158.097 C386.128,160.127 385.695,160.788 383.597,160.629 C381.018,160.434 378.41,160.503 375.822,160.614 C374.418,160.674 373.993,160.194 373.924,158.828 C373.605,152.509 373.165,146.196 372.812,139.878 C371.969,124.806 371.15,109.732 370.316,94.659 C370.309,94.53 370.216,94.406 370.129,94.198 C369.337,94.616 369.609,95.39 369.495,95.988 C365.5,116.942 361.51,137.896 357.543,158.856 C357.312,160.077 356.893,160.719 355.474,160.614 C353.2,160.447 350.386,161.29 348.773,160.228 C347.102,159.127 347.547,156.041 347.121,153.82 C343.4,134.444 339.731,115.058 336.046,95.674 C335.827,95.201 335.649,94.714 335.511,94.033 C335.489,94.558 335.594,94.954 335.278,95.24 Z" id="Shape" fill="#2B86C6"></path>
            <path d="M9.513,133.37 C19.351,132.845 28.734,131.471 37.936,128.926 C53.902,124.509 66.564,115.333 76.465,102.2 C81.006,96.177 85.483,90.105 89.93,84.013 C105.163,63.146 125.433,49.156 149.473,40.288 C154.117,38.575 158.79,36.95 163.549,35.58 C164.235,35.382 164.906,34.894 165.867,35.537 C163.574,36.794 161.392,37.971 159.227,39.181 C137.598,51.265 120.503,68.101 107.195,88.89 C102.474,96.265 97.855,103.706 93.126,111.076 C91.482,113.638 89.674,116.096 87.899,118.571 C76.15,134.954 59.889,140.918 40.262,139.384 C30.032,138.584 20.084,136.409 10.176,133.929 C10.05,133.895 9.952,133.744 9.513,133.37 Z" id="Shape" fill="#275E90"></path>
            <path d="M464.415,101.877 C469.277,95.151 475.509,93.975 482.487,95.327 C487.561,96.31 490.807,100.075 491.708,105.72 C491.995,107.519 492.151,109.358 492.155,111.179 C492.189,126.888 492.149,142.597 492.212,158.306 C492.219,160.029 491.902,160.764 489.993,160.628 C487.489,160.449 484.956,160.468 482.449,160.623 C480.627,160.736 480.162,160.138 480.172,158.339 C480.247,144.689 480.207,131.039 480.219,117.389 C480.221,115.17 480.101,112.959 479.614,110.8 C478.815,107.261 477.175,105.913 473.414,105.497 C469.872,105.106 466.974,106.549 465.594,109.421 C464.541,111.613 464.421,113.975 464.42,116.346 C464.412,130.301 464.382,144.256 464.457,158.211 C464.467,160.073 464.02,160.751 462.076,160.626 C459.418,160.454 456.74,160.542 454.072,160.601 C452.903,160.627 452.345,160.25 452.486,159.033 C452.53,158.657 452.492,158.271 452.492,157.89 C452.492,125.404 452.516,92.919 452.44,60.433 C452.435,58.181 453.077,57.535 455.249,57.721 C457.52,57.915 459.832,57.903 462.105,57.723 C464.105,57.564 464.465,58.354 464.455,60.177 C464.382,73.445 464.415,86.714 464.415,99.983 C464.415,100.41 464.415,100.836 464.415,101.877 Z" id="Shape" fill="#2B87C6"></path>
            <path d="M251.594,101.425 C251.934,99.21 250.945,96.926 252.042,95.918 C253.253,94.805 255.532,95.647 257.343,95.569 C258.713,95.509 260.101,95.683 261.455,95.527 C263.328,95.311 263.7,96.081 263.694,97.824 C263.635,116.882 263.657,135.939 263.657,154.997 C263.657,160.581 263.657,160.584 258.138,160.579 C256.157,160.577 253.769,161.235 252.302,160.359 C250.673,159.387 252.208,156.741 251.521,154.664 C250.913,155.408 250.42,156.028 249.91,156.634 C243.596,164.139 232.563,163.368 227.428,155.024 C224.656,150.519 223.485,145.475 222.899,140.298 C221.674,129.481 221.621,118.704 224.406,108.07 C225.025,105.705 225.929,103.446 227.185,101.34 C232.41,92.576 243.834,91.776 250.269,99.722 C250.638,100.177 250.989,100.646 251.594,101.425 Z" id="Shape" fill="#275E90"></path>
            <path d="M533.316,101.279 C533.413,100.763 533.437,100.689 533.44,100.613 C533.618,95.562 533.618,95.562 538.61,95.562 C540.135,95.562 541.672,95.687 543.18,95.53 C545.036,95.336 545.44,96.064 545.433,97.822 C545.369,114.364 545.395,130.906 545.395,147.448 C545.395,151.26 545.354,155.072 545.418,158.882 C545.439,160.133 545.119,160.653 543.764,160.611 C540.87,160.52 537.969,160.52 535.076,160.611 C533.698,160.654 533.374,160.093 533.458,158.858 C533.545,157.587 533.477,156.305 533.477,154.96 C532.523,155.109 532.363,155.88 531.967,156.364 C525.492,164.273 514.333,163.51 509.062,154.75 C506.539,150.558 505.396,145.892 504.818,141.107 C503.522,130.38 503.428,119.673 505.932,109.072 C506.618,106.168 507.681,103.393 509.286,100.862 C514.491,92.651 525.608,91.96 531.854,99.447 C532.275,99.953 532.676,100.476 533.316,101.279 Z" id="Shape" fill="#2B86C6"></path>
            <path d="M313.841,160.58 C309.846,160.58 306.19,160.515 302.538,160.613 C301.142,160.651 300.939,159.741 300.59,158.829 C298.092,152.29 295.598,145.75 293.099,139.211 C292.996,138.943 292.867,138.685 292.556,137.986 C291.141,141.702 289.862,145.042 288.598,148.387 C287.252,151.947 285.9,155.504 284.596,159.079 C284.255,160.015 283.904,160.633 282.708,160.608 C279.058,160.53 275.405,160.58 271.763,160.58 C271.469,159.634 272.055,159.026 272.342,158.364 C276.758,148.169 281.18,137.975 285.652,127.804 C286.182,126.598 286.21,125.584 285.688,124.36 C281.899,115.469 278.209,106.535 274.406,97.65 C273.687,95.97 273.825,95.411 275.805,95.519 C278.542,95.669 281.298,95.645 284.038,95.522 C285.567,95.453 286.292,95.881 286.789,97.423 C288.556,102.895 290.512,108.306 292.568,114.238 C294.199,109.661 295.651,105.533 297.143,101.42 C297.838,99.504 297.888,96.823 299.445,95.897 C300.983,94.983 303.438,95.523 305.486,95.58 C307.419,95.634 309.384,95.195 311.286,95.869 C310.607,97.632 309.964,99.41 309.244,101.155 C306.05,108.893 302.859,116.633 299.602,124.345 C299.086,125.567 299.099,126.584 299.628,127.791 C304.084,137.97 308.485,148.173 312.902,158.37 C313.169,158.986 313.427,159.604 313.841,160.58 Z" id="Shape" fill="#275E90"></path>
            <path d="M125.957,84.043 C127.298,86.584 126.164,89.165 125.855,91.641 C124.748,100.518 122.163,109.041 118.021,116.95 C115.144,122.443 111.766,127.704 107.734,132.479 C103.261,137.775 98.319,142.564 92.576,146.494 C83.767,152.522 74.234,156.92 63.802,159.273 C56.505,160.919 49.098,161.347 41.636,161.166 C41.147,161.154 39.72,160.152 39.978,161.985 C33.124,159.208 27.242,154.972 21.477,149.772 C23.676,149.346 25.391,150.058 27.107,150.339 C37.452,152.035 47.799,152.996 58.288,151.627 C72.1,149.824 83.328,143.444 92.381,132.993 C99.201,125.12 104.571,116.249 110.036,107.442 C114.537,100.19 119.031,92.934 124.204,86.129 C124.752,85.407 125.37,84.738 125.957,84.043 Z" id="Shape" fill="#1A72AF"></path>
            <path d="M425.462,109.139 C425.462,92.9 425.513,76.661 425.405,60.423 C425.39,58.135 426.073,57.55 428.221,57.722 C430.569,57.909 432.953,57.887 435.305,57.725 C437.108,57.601 437.429,58.299 437.423,59.941 C437.366,76.637 437.388,93.333 437.388,110.029 C437.388,126.039 437.356,142.049 437.43,158.059 C437.439,159.971 437.123,160.818 434.972,160.634 C432.475,160.42 429.939,160.482 427.431,160.62 C425.765,160.712 425.424,160.093 425.429,158.542 C425.482,142.074 425.462,125.607 425.462,109.139 Z" id="Shape" fill="#2B87C6"></path>
            <path d="M68.417,92.15 C66.295,95.297 63.908,98.214 61.018,100.696 C57.312,103.403 53.193,105.019 48.619,105.542 C41.465,106.361 35.24,104.167 29.744,99.735 C23.857,94.988 20.922,88.564 20.748,81.194 C20.56,73.264 23.634,66.447 29.942,61.401 C33.498,58.556 37.639,56.816 42.077,55.761 C47.807,54.399 52.997,56.222 57.897,58.757 C66.524,63.221 70.599,70.785 71.164,80.242 C71.367,83.647 70.565,87.068 69.106,90.23 C68.814,90.86 68.622,91.501 68.417,92.15 Z" id="Shape" fill="#137DBF"></path>
            <path d="M68.417,92.15 C68.181,90.797 68.785,89.619 69.204,88.404 C73.199,76.822 67.641,64.484 57.346,58.989 C41.956,50.773 24.41,61.379 21.782,75.993 C19.276,89.925 28.092,101.864 41.464,104.733 C47.69,106.069 53.477,104.45 58.95,101.481 C59.617,101.119 60.18,100.574 61.018,100.696 C56.629,105.931 51.18,109.745 45.031,112.621 C29.587,111.601 17.808,101.668 14.582,86.554 C12.083,74.847 17.302,61.978 27.235,54.768 C32.779,50.744 39.069,48.5 45.813,48.61 C55.248,48.764 63.496,52.173 69.827,59.527 C73.807,64.15 76.285,69.463 77.42,75.424 C77.691,76.845 77.893,78.283 77.561,79.73 C74.847,84.117 71.357,87.931 68.417,92.15 Z" id="Shape" fill="#147CBD"></path>
            <path d="M410.261,128.073 C410.261,138.21 410.216,148.348 410.304,158.484 C410.319,160.23 409.828,160.717 408.132,160.621 C405.625,160.478 403.097,160.47 400.591,160.623 C398.792,160.732 398.287,160.185 398.298,158.36 C398.379,145.479 398.341,132.598 398.341,119.717 C398.341,112.4 398.407,105.082 398.295,97.766 C398.266,95.908 398.852,95.43 400.604,95.527 C403.112,95.666 405.639,95.671 408.146,95.525 C409.852,95.425 410.319,95.931 410.304,97.662 C410.216,107.798 410.261,117.936 410.261,128.073 Z" id="Shape" fill="#2B87C6"></path>
            <path d="M28.615,118.262 C28.26,117.338 27.469,116.911 26.663,116.45 C15.255,109.923 8.288,100.265 6.074,87.243 C5.604,84.482 5.382,81.704 5.203,78.917 C5.164,78.313 5.254,77.68 4.625,77.294 C11.335,59.725 23.26,47.09 40.445,39.431 C43.367,40.092 46.288,39.259 49.268,39.592 C65.297,41.385 76.77,49.379 83.513,64.051 C84.269,65.696 85.099,67.344 85.414,69.166 C84.494,71.128 82.934,72.586 81.497,74.142 C79.59,74.329 79.812,72.635 79.564,71.672 C78.344,66.926 76.104,62.721 73.102,58.91 C66.518,50.555 57.828,46.306 47.243,45.917 C36.933,45.538 28.066,48.985 20.871,56.38 C7.86,69.751 7.969,92.051 21.181,105.214 C24.974,108.993 29.429,111.97 34.637,113.644 C35.711,113.989 37.14,114.098 37.23,115.745 C34.468,116.958 31.602,117.818 28.615,118.262 Z" id="Shape" fill="#157ABA"></path>
            <path d="M37.231,115.745 C36.732,114.859 35.823,114.668 34.961,114.363 C22.376,109.917 14.322,101.183 11.428,88.218 C9.044,77.535 11.287,67.555 18.064,58.788 C29.965,43.392 52.204,40.628 67.67,52.63 C73.803,57.39 77.884,63.538 79.944,71.05 C80.24,72.13 80.207,73.508 81.499,74.141 C80.654,76.334 78.986,77.946 77.56,79.729 C76.676,76.992 76.731,74.086 75.778,71.322 C71.548,59.05 63.058,51.493 50.357,49.618 C39.061,47.951 29.405,51.792 21.884,60.748 C17.066,66.486 14.611,73.162 14.535,80.375 C14.452,88.203 17.155,95.363 22.538,101.361 C27.98,107.425 34.815,110.603 42.761,111.705 C43.569,111.817 44.416,111.965 45.031,112.619 C42.568,114.005 40.046,115.243 37.231,115.745 Z" id="Shape" fill="#157BBB"></path>
            <path d="M85.415,69.166 C84.549,68.552 84.293,67.573 83.945,66.66 C78.981,53.629 69.842,45.087 56.368,41.453 C52.177,40.323 47.847,39.547 43.4,40.208 C42.486,40.344 41.063,41.02 40.446,39.432 C47.565,36.159 55.023,34.266 62.862,33.924 C64.211,35.116 65.977,35.48 67.539,36.245 C77.762,41.251 85.213,49.027 90.415,59.045 C91.022,60.215 91.855,61.437 91.318,62.92 C89.488,65.132 87.696,67.38 85.415,69.166 Z" id="Shape" fill="#1679B8"></path>
            <path d="M91.317,62.919 C88.137,54.21 82.59,47.285 75.293,41.688 C71.852,39.049 68.112,36.936 64.072,35.336 C63.536,35.124 62.344,35.165 62.862,33.923 C66.077,33.606 69.29,33.619 72.503,33.949 C73.408,34.353 74.426,33.843 75.326,34.296 C80.216,34.583 84.914,35.712 89.458,37.518 C89.332,38.711 90.315,39.232 90.981,39.888 C94.637,43.492 97.326,47.778 99.827,52.205 C100.26,52.972 100.475,53.74 99.981,54.561 C97.093,57.347 94.205,60.133 91.317,62.919 Z" id="Shape" fill="#1777B5"></path>
            <path d="M84.383,165.669 C84.51,164.263 85.681,163.899 86.686,163.401 C96.291,158.637 104.91,152.501 112.362,144.787 C120.303,136.566 126.35,127.065 131.023,116.665 C131.451,115.712 131.72,114.631 133.012,114.467 C132.29,117.253 131.782,120.116 130.812,122.813 C124.126,141.409 111.695,154.713 93.587,162.621 C90.637,163.908 87.602,165.111 84.383,165.669 Z" id="Shape" fill="#1D6EA9"></path>
            <path d="M411.794,76.015 C411.816,80.387 408.499,83.762 404.214,83.727 C400.001,83.693 396.706,80.417 396.632,76.189 C396.557,71.953 399.965,68.391 404.176,68.305 C408.372,68.219 411.772,71.66 411.794,76.015 Z" id="Shape" fill="#2B87C6"></path>
            <path d="M99.981,54.561 C98.893,50.609 96.341,47.496 94.057,44.229 C92.702,42.291 90.957,40.711 89.327,39.024 C88.85,38.531 87.902,37.884 89.458,37.518 C96.395,39.733 102.647,43.216 108.56,47.769 C105.625,50.093 102.803,52.327 99.981,54.561 Z" id="Shape" fill="#1974B2"></path>
            <path d="M161.807,97.535 C161.78,96.558 161.727,95.581 161.738,94.605 C161.743,94.205 161.641,93.516 162.277,93.627 C162.765,93.712 162.677,94.346 162.602,94.8 C161.684,95.522 162.529,96.757 161.807,97.535 Z" id="Shape" fill="#8FABC5"></path>
            <path d="M335.278,95.24 C335.278,94.747 335.278,94.255 335.278,93.638 C336.066,94.246 336.142,94.932 336.047,95.677 C335.791,95.531 335.534,95.386 335.278,95.24 Z" id="Shape" fill="#C5DEEF"></path>
            <path d="M167.897,34.443 C167.665,34.982 167.234,35.197 166.712,35.182 C166.498,35.176 166.327,34.924 166.499,34.706 C166.865,34.241 167.344,34.184 167.897,34.443 Z" id="Shape" fill="#7D9EBC"></path>
            <path d="M75.326,34.296 C74.381,34.215 73.372,34.65 72.503,33.948 C73.465,33.895 74.428,33.832 75.326,34.296 Z" id="Shape" fill="#1679B8"></path>
            <path d="M12.549,120.717 C13.282,120.124 14.132,120.457 14.936,120.416 C14.181,120.833 13.366,120.78 12.549,120.717 Z" id="Shape" fill="#1679B8"></path>
            <path d="M234.113,128.541 C234.303,123.015 234.315,118.208 235.374,113.491 C235.573,112.603 235.8,111.712 236.119,110.861 C237.468,107.252 239.919,105.401 243.222,105.439 C246.462,105.476 248.781,107.272 250.149,110.784 C251.071,113.152 251.474,115.636 251.658,118.141 C252.245,126.131 252.467,134.121 250.996,142.056 C250.647,143.937 250.076,145.756 249.015,147.371 C246.119,151.78 240.023,151.716 237.211,147.239 C235.325,144.238 234.94,140.8 234.61,137.397 C234.3,134.216 234.243,131.01 234.113,128.541 Z" id="Shape" fill="#FEFEFE"></path>
            <path d="M533.785,127.994 C533.88,133.101 533.785,138.205 532.507,143.191 C532.207,144.36 531.787,145.523 531.242,146.598 C529.976,149.095 527.963,150.552 525.074,150.588 C522.095,150.625 519.999,149.189 518.657,146.612 C516.85,143.145 516.519,139.329 516.282,135.532 C515.808,127.919 515.677,120.308 517.361,112.797 C517.608,111.695 518.011,110.603 518.503,109.584 C519.819,106.86 522.066,105.433 525.077,105.461 C528.109,105.489 530.273,107.04 531.531,109.774 C533.288,113.594 533.483,117.73 533.762,121.825 C533.9,123.874 533.785,125.938 533.785,127.994 Z" id="Shape" fill="#FEFEFE"></path>
            <path d="M62.871,80.798 C62.871,90.004 55.267,97.584 45.923,97.467 C36.44,97.349 28.828,89.943 29.132,80.466 C29.44,70.866 36.015,63.983 45.912,63.847 C54.915,63.723 62.788,70.67 62.871,80.798 Z" id="Shape" fill="#127FC1"></path>
            <path d="M45.924,72.318 C50.786,72.316 54.155,75.634 54.174,80.443 C54.193,85.344 50.555,89.238 45.947,89.249 C41.344,89.26 37.682,85.361 37.697,80.466 C37.712,75.665 41.09,72.32 45.924,72.318 Z" id="Shape" fill="#1180C4"></path>
        </g>
    </g>
</svg>