<?xml version="1.0" encoding="utf-8"?>
<!-- Generator: Adobe Illustrator 16.0.0, SVG Export Plug-In . SVG Version: 6.00 Build 0)  -->
<!DOCTYPE svg PUBLIC "-//W3C//DTD SVG 1.1//EN" "http://www.w3.org/Graphics/SVG/1.1/DTD/svg11.dtd">
<svg version="1.1" id="Layer_1" xmlns="http://www.w3.org/2000/svg" xmlns:xlink="http://www.w3.org/1999/xlink" x="0px" y="0px"
	 width="300px" height="76.01px" viewBox="0 0 300 76.01" enable-background="new 0 0 300 76.01" xml:space="preserve">
<g>
	<g>
		<path fill="#E15E3A" d="M37.317,20.896c0.242-0.381,0.524-0.817,0.848-1.37c1.021-1.408,1.527-2.958,1.527-4.58
			c0-4.208-3.42-7.625-7.624-7.625l-0.143-0.005c-4.097,0.005-7.517,3.423-7.517,7.631c0,1.625,0.507,3.176,1.471,4.493
			c0.38,0.639,0.659,1.074,0.901,1.447c1.028,1.603,1.48,2.431,1.518,5.254v16.511c-0.032,2.832-0.494,3.664-1.522,5.268
			c-0.232,0.363-0.496,0.772-0.795,1.283c-1.051,1.427-1.574,2.99-1.574,4.636c0,4.205,3.419,7.623,7.625,7.623h0.035
			c4.204,0,7.624-3.418,7.624-7.623c0-1.637-0.518-3.198-1.497-4.522c-0.372-0.62-0.643-1.041-0.876-1.407
			c-1.079-1.676-1.519-2.479-1.519-5.586V26.479C35.801,23.374,36.237,22.571,37.317,20.896z M7.496,26.896
			C3.36,26.896,0,30.257,0,34.393c0,4.134,3.36,7.498,7.496,7.498c4.133,0,7.495-3.364,7.495-7.498
			C14.991,30.257,11.629,26.896,7.496,26.896z M91.678,20.896c0.247-0.381,0.525-0.817,0.848-1.37
			c1.022-1.408,1.527-2.958,1.527-4.58c0-4.208-3.421-7.625-7.622-7.625l-0.148-0.005c-4.09,0.005-7.513,3.423-7.513,7.631
			c0,1.625,0.511,3.176,1.473,4.493c0.381,0.636,0.659,1.07,0.899,1.443c1.025,1.605,1.484,2.431,1.52,5.258v16.511
			c-0.036,2.835-0.495,3.664-1.52,5.271c-0.232,0.36-0.494,0.771-0.795,1.28c-1.052,1.427-1.577,2.99-1.577,4.636
			c0,4.205,3.422,7.623,7.624,7.623h0.037c4.201,0,7.622-3.418,7.622-7.623c0-1.637-0.518-3.198-1.494-4.522
			c-0.375-0.62-0.639-1.041-0.877-1.404c-1.079-1.678-1.514-2.482-1.514-5.589V26.479C90.168,23.374,90.604,22.571,91.678,20.896z
			 M111.003,26.896c-4.137,0-7.496,3.361-7.496,7.497c0,4.134,3.359,7.498,7.496,7.498c4.132,0,7.496-3.364,7.496-7.498
			C118.499,30.257,115.135,26.896,111.003,26.896z M65.533,23.927c-2.286-1.671-2.523-3.429-2.546-3.852v-1.592
			c0.064-2.553,0.534-3.392,1.503-4.904c0.244-0.379,0.521-0.811,0.844-1.362c1.028-1.411,1.539-2.963,1.539-4.593
			C66.874,3.422,63.457,0,59.249,0c-4.249,0-7.67,3.422-7.67,7.625c0,1.627,0.509,3.177,1.472,4.492
			c0.386,0.648,0.667,1.084,0.911,1.463c0.996,1.555,1.443,2.351,1.506,4.904v1.524c0,0.253-0.116,2.256-2.783,4.085
			c-0.102,0.07-0.514,0.364-0.623,0.443c-3.043,2.218-5.027,5.801-5.027,9.856c0,4.225,2.149,7.949,5.408,10.14
			c0,0,3.025,1.934,3.025,4.077v1.645c0,3.394-2.407,6.401-2.407,6.401c-0.968,1.319-1.482,2.877-1.482,4.505
			c0,4.201,3.421,7.625,7.625,7.625h0.045c4.208,0,7.625-3.423,7.625-7.625c0-1.63-0.513-3.188-1.476-4.505
			c0,0-2.41-3.152-2.41-6.341v-1.209c0,0,0.021-0.435,0.038-0.552c0.097-0.693,0.592-2.447,3.075-4.02c0,0,5.361-3.55,5.361-10.14
			C71.461,29.948,69.082,26.062,65.533,23.927z"/>
		<g>
			<path fill="#121212" d="M269.85,72.347c0,0.812-0.23,1.458-0.697,1.942c-0.471,0.496-1.092,0.864-1.863,1.115
				c-0.768,0.252-1.643,0.409-2.619,0.476c-0.977,0.068-1.971,0.099-2.984,0.095c-1.096,0-2.141-0.042-3.137-0.128
				c-0.992-0.083-1.877-0.252-2.648-0.511c-0.775-0.25-1.381-0.625-1.83-1.111c-0.445-0.491-0.666-1.119-0.666-1.895l0.055-41.616
				c0-0.811,0.227-1.45,0.699-1.922c0.467-0.467,1.086-0.831,1.857-1.083c0.77-0.25,1.648-0.415,2.621-0.497
				c0.977-0.084,1.971-0.128,2.99-0.128c1.092,0.004,2.137,0.049,3.131,0.132c0.998,0.088,1.885,0.253,2.65,0.509
				c0.773,0.252,1.381,0.624,1.828,1.115c0.445,0.484,0.668,1.115,0.668,1.892L269.85,72.347z M253.479,10.514
				c0.002-0.804,0.238-1.447,0.705-1.919c0.463-0.468,1.088-0.83,1.855-1.08c0.773-0.253,1.646-0.42,2.621-0.5
				c0.977-0.085,1.973-0.126,2.986-0.126c1.098,0,2.141,0.047,3.139,0.135c0.992,0.083,1.877,0.252,2.648,0.505
				c0.773,0.248,1.373,0.628,1.828,1.108c0.445,0.492,0.668,1.122,0.666,1.899l-0.006,6.566c-0.004,0.805-0.24,1.451-0.707,1.941
				c-0.463,0.488-1.084,0.856-1.855,1.107c-0.773,0.256-1.646,0.411-2.623,0.478c-0.973,0.067-1.967,0.095-2.98,0.095
				c-1.1,0-2.145-0.039-3.141-0.128c-0.994-0.083-1.881-0.252-2.648-0.507c-0.768-0.256-1.381-0.624-1.826-1.108
				c-0.449-0.495-0.668-1.125-0.668-1.9L253.479,10.514z"/>
			<path fill="#121212" d="M299.92,72.382c0,0.807-0.236,1.46-0.699,1.945c-0.467,0.488-1.092,0.854-1.859,1.107
				c-0.771,0.249-1.648,0.411-2.619,0.478c-0.977,0.064-1.971,0.099-2.984,0.099c-1.098,0-2.148-0.047-3.141-0.129
				c-0.996-0.087-1.875-0.257-2.65-0.51c-0.771-0.256-1.379-0.623-1.824-1.111c-0.449-0.492-0.672-1.12-0.668-1.896l0.076-61.816
				c0-0.739,0.09-1.356,0.273-1.845c0.184-0.484,0.49-0.857,0.916-1.107c0.43-0.25,1.008-0.428,1.736-0.532
				c0.73-0.103,1.666-0.148,2.803-0.148c0.814,0,1.826,0.062,3.047,0.179c1.215,0.125,2.395,0.351,3.531,0.689
				c1.133,0.337,2.109,0.795,2.924,1.366c0.812,0.575,1.219,1.312,1.219,2.223L299.92,72.382z"/>
			<path fill="#121212" d="M269.85,72.347c0,0.812-0.23,1.458-0.697,1.942c-0.471,0.496-1.092,0.864-1.863,1.115
				c-0.768,0.252-1.643,0.409-2.619,0.476c-0.977,0.068-1.971,0.099-2.984,0.095c-1.096,0-2.141-0.042-3.137-0.128
				c-0.992-0.083-1.877-0.252-2.648-0.511c-0.775-0.25-1.381-0.625-1.83-1.111c-0.445-0.491-0.666-1.119-0.666-1.895l0.055-41.616
				c0-0.811,0.227-1.45,0.699-1.922c0.467-0.467,1.086-0.831,1.857-1.083c0.77-0.25,1.648-0.415,2.621-0.497
				c0.977-0.084,1.971-0.128,2.99-0.128c1.092,0.004,2.137,0.049,3.131,0.132c0.998,0.088,1.885,0.253,2.65,0.509
				c0.773,0.252,1.381,0.624,1.828,1.115c0.445,0.484,0.668,1.115,0.668,1.892L269.85,72.347z"/>
			<path fill="#121212" d="M239.977,44.767l0.006-2.655c0-2.154-0.529-4.023-1.58-5.605c-1.057-1.583-2.475-2.935-4.26-4.046
				c-1.787-1.112-3.861-2.023-6.244-2.734c-2.373-0.712-4.85-1.257-7.428-1.648c-2.576-0.393-26.988-3.292-33.451,6.526
				c-1.604,2.434-2.779,5.268-3.391,8.604c-0.615,3.333-0.926,6.983-0.926,10.952v-2.306c-0.008,3.363,0.227,6.507,0.686,9.418
				c0.463,2.913,1.479,5.455,3.035,7.63c1.564,2.17,3.811,3.878,6.73,5.128c2.924,1.247,6.857,1.878,11.814,1.887
				c2.072,0,2.572-0.045,4.32-0.149c1.221-0.07,2.357-0.155,3.457-0.25c0.635-0.109,4.975-1.055,4.18-6.158
				c-0.861-5.5-4.506-5.076-6.002-5.022c-0.043,0-0.078-0.019-0.111-0.027c-0.939,0.044-1.873,0.1-2.85,0.1
				c-2.277-0.005-7.34,0.388-8.486-5.341c-0.248-1.227-0.334-2.685-0.332-4.366l0.006-2.842c0.006-2.226,0.225-4.156,0.344-5.836
				c0.561-7.67,7.979-7.829,17.037-6.968c1.846,0.176,3.256,0.837,4.291,1.494c1.035,0.653,1.748,1.456,2.129,2.402
				c0.381,0.94,0.572,2.032,0.572,3.281l-0.008,4.524l0,0l-0.037,20.165c0,0.777,0.223,1.404,0.668,1.895
				c0.447,0.488,1.057,0.864,1.826,1.112c0.771,0.256,1.656,0.427,2.652,0.509c0.994,0.088,2.035,0.128,3.137,0.128
				c1.01,0.004,2.008-0.026,2.984-0.095c0.977-0.066,1.848-0.224,2.619-0.476c0.773-0.248,1.389-0.619,1.855-1.113
				c0.473-0.484,0.703-1.131,0.703-1.942l0.039-20.184h0.002l0.004-0.967l0.014-4.981C239.983,44.795,239.977,44.782,239.977,44.767
				z"/>
			<path fill="#121212" d="M174.249,66.515c-0.104-0.522-0.322-0.992-0.666-1.414c-0.348-0.42-0.836-0.766-1.465-1.039
				c-0.629-0.269-1.451-0.403-2.467-0.405c-0.77-0.004-1.422,0.037-1.951,0.123c-0.525,0.087-1.066,0.173-1.613,0.279
				c-0.549,0.099-1.188,0.191-1.918,0.271c-0.732,0.085-1.67,0.126-2.803,0.126c-2.232-0.004-4.008-0.157-5.33-0.465
				c-1.323-0.299-2.332-0.747-3.045-1.339c-0.717-0.59-1.18-1.295-1.398-2.118c-0.225-0.83-0.336-1.776-0.334-2.861l0.021-18.894
				l5.365,0.006c2.518,0,4.75,0.004,6.703,0.008c1.949,0.002,3.285-0.031,4.021-0.098c0.73-0.032,1.391-0.225,1.979-0.576
				c0.59-0.356,1.09-0.807,1.494-1.363c0.408-0.554,0.721-1.185,0.947-1.894c0.221-0.707,0.336-1.41,0.336-2.122
				c0.006-1.107-0.24-2.017-0.723-2.725c-0.488-0.709-1.131-1.255-1.92-1.642c-0.793-0.387-1.707-0.649-2.74-0.784
				c-1.039-0.139-2.092-0.214-3.168-0.232c-1.08-0.019-2.143-0.001-3.199,0.048c-1.055,0.049-2.008,0.071-2.857,0.067l-6.223-0.004
				l0.006-6.765c0-0.81-0.232-1.45-0.696-1.919c-0.47-0.472-1.085-0.833-1.856-1.088c-0.773-0.257-1.645-0.427-2.621-0.509
				c-0.972-0.088-1.967-0.129-2.984-0.129c-1.1,0-2.143,0.042-3.139,0.117c-0.993,0.087-1.876,0.255-2.649,0.507
				c-0.772,0.251-1.38,0.62-1.825,1.108c-0.453,0.484-0.676,1.118-0.676,1.893l-0.008,6.715c-0.008,0-0.025,21.105-0.025,21.105
				h-0.001l-0.015,13.594c-0.004,1.923,0.35,3.594,1.057,5.024c0.711,1.438,1.674,2.659,2.89,3.671
				c1.216,1.007,2.628,1.841,4.231,2.501c1.602,0.661,3.289,1.175,5.053,1.547c1.771,0.372,3.566,0.633,5.395,0.788
				c1.832,0.159,3.575,0.229,5.242,0.236c4.91,0.006,8.762-0.665,11.543-2.007c2.787-1.346,4.18-3.259,4.18-5.752
				C174.401,67.569,174.348,67.037,174.249,66.515z"/>
		</g>
	</g>
</g>
</svg>
