<?xml version="1.0" encoding="utf-8"?>
<!-- Generator: Adobe Illustrator 22.0.0, SVG Export Plug-In . SVG Version: 6.00 Build 0)  -->
<svg version="1.1" id="Layer_1" xmlns="http://www.w3.org/2000/svg" xmlns:xlink="http://www.w3.org/1999/xlink" x="0px" y="0px"
	 viewBox="0 0 524 144" style="enable-background:new 0 0 524 144;" xml:space="preserve">
<g>
	<path style="fill:#1B6DA8;" d="M73.5,139.5C36.3,139.5,6,109.2,6,72C6,34.8,36.3,4.5,73.5,4.5h377C487.7,4.5,518,34.8,518,72
		c0,37.2-30.3,67.5-67.5,67.5H73.5z"/>
	<path style="fill:#FFFFFF;" d="M450.5,8.5C485.4,8.5,514,37.1,514,72v0c0,34.9-28.6,63.5-63.5,63.5h-377C38.6,135.5,10,106.9,10,72
		v0C10,37.1,38.6,8.5,73.5,8.5H450.5 M450.5,0.6h-377C34.1,0.6,2,32.6,2,72c0,39.4,32,71.4,71.4,71.4h377c39.4,0,71.4-32,71.4-71.4
		C522,32.6,489.9,0.6,450.5,0.6L450.5,0.6z"/>
</g>
<polygon style="fill-rule:evenodd;clip-rule:evenodd;fill:#FFFFFF;" points="101.8,105 91.6,105 91.4,105 91.4,104.9 55.4,40.2 
	55.2,39.8 55.6,39.8 64.7,39.8 64.9,39.8 64.9,39.9 96.6,97.4 128.4,39.9 128.5,39.8 128.6,39.8 137.8,39.8 138.2,39.8 138,40.2 
	102,104.9 102,105 "/>
<path style="fill-rule:evenodd;clip-rule:evenodd;fill:#FFFFFF;" d="M145.3,83.4L166.5,47l21.6,36.4H145.3z M209.7,104.6L172,39.9
	l-0.1-0.1h-11l-0.1,0.1l-37.6,64.8l-0.2,0.4h9.8l0.1-0.1l8.2-14.1h51.2l8.4,14.1l0.1,0.1h9.1L209.7,104.6z"/>
<path style="fill-rule:evenodd;clip-rule:evenodd;fill:#FFFFFF;" d="M240.8,97.8h30.6c6.5,0,10.3-0.8,12.4-3.1
	c2.1-2.3,2.7-6.1,2.7-12.1v-3h-33h-0.2v-0.3v-7.2v-0.3h0.2H295h0.2v0.3v10.5c0,4.2,0,7.9-0.6,11c-0.7,3.2-2,5.8-4.6,8.1
	c-2.2,1.9-5.1,2.9-8.9,3.5c-3.7,0.6-8.3,0.7-13.8,0.7h-23.1c-5.1,0-9.4-0.1-13-0.8c-3.7-0.6-6.7-1.9-9.1-3.9c-2.4-2-3.9-4.5-4.9-7.7
	c-1-3.2-1.4-7-1.4-11.6V64.2c0-5,0.4-9.2,1.4-12.5c1-3.4,2.5-6.1,4.9-8.1c2.3-2,5.3-3.1,8.9-3.8v0v0c3.6-0.7,8-0.8,13.1-0.8h23.2
	c9.9,0,16.7,0.8,21,3.6c4.4,2.8,6.3,7.4,6.3,14.9c0,0.5,0,1.1,0,1.7c0,0.6-0.1,1.2-0.1,1.8v0.2h-0.2h-7.4h-0.3V61v-1
	c0-5.1-1-8.5-3.4-10.5c-2.3-2.1-6.1-2.9-11.5-2.9h-30.9c-3.5,0-6.2,0.2-8.5,1c-2.2,0.7-3.9,1.8-5.2,3.7c-1.1,1.5-1.6,3.3-2,5.3
	c-0.3,2-0.3,4.4-0.3,7.1v17.2c0,2.7,0,5,0.3,7.1c0.3,2,0.9,3.8,2,5.3c1.3,1.8,3,2.9,5.2,3.6C234.5,97.6,237.3,97.8,240.8,97.8"/>
<path style="fill-rule:evenodd;clip-rule:evenodd;fill:#FFFFFF;" d="M323,83.4L344.2,47l21.6,36.4H323z M387.3,104.6l-37.7-64.8
	l-0.1-0.1h-11l-0.1,0.1L301,104.6l-0.2,0.4h9.8l0.1-0.1l8.2-14.1H370l8.4,14.1l0.1,0.1h9.1L387.3,104.6z"/>
<path style="fill-rule:evenodd;clip-rule:evenodd;fill:#FFFFFF;" d="M393.4,84.5c0-0.3,0-0.6,0-0.8l0-0.2h0.3h7.7h0.3l0,0.3
	c0,0.5,0,0.9-0.1,1.2c-0.1,1.1-0.1,1.9-0.1,2.6c0,4.3,1.4,6.9,4.3,8.5c3,1.6,7.7,2.1,14.4,2.1h16.9c7.8,0,13.1-0.4,16.4-2.2
	c3.3-1.7,4.6-4.8,4.6-10.1c0-4.5-1-7.1-3.2-8.5c-2.2-1.5-5.8-1.9-10.8-1.9h-27.3c-8.5,0-14.4-1.1-18.2-3.9
	c-3.8-2.9-5.5-7.4-5.5-14.1c0-7.3,2.1-11.9,6.7-14.6c4.6-2.8,11.6-3.7,21.4-3.7h14.7c6,0,10.9,0.1,15,0.6c4.1,0.5,7.2,1.6,9.6,3.6
	c1.6,1.4,2.7,3.1,3.4,5.3c0.7,2.1,1,4.7,1,7.8V58v0.3h-0.3H457h-0.3V58v-1c0-4.6-1-7.2-3.4-8.8c-2.5-1.5-6.4-1.9-12.4-1.9h-22.1
	c-6.3,0-10.5,0.5-13.2,2.1c-2.6,1.6-3.7,4.2-3.7,8.4c0,4.7,1.2,7.3,4,8.8c2.8,1.5,7.2,1.9,13.4,1.9h23.2c4.1,0,7.6,0.1,10.5,0.5
	c3,0.4,5.4,1,7.3,2.2c2.5,1.5,4.1,3.5,5,6.1c0.9,2.6,1.2,5.8,1.2,9.9c0,7.5-1.8,12.4-6.1,15.4c-4.3,3-11,4.1-20.8,4.1h-22
	c-8.5,0-14.6-1.2-18.5-3.9c-4-2.7-5.8-7.1-5.8-13.4C393.3,87.3,393.4,86,393.4,84.5"/>
</svg>
